<svg version="1.2" xmlns="http://www.w3.org/2000/svg" viewBox="0 0 1024 1024" width="256" height="256">
	<style>
		tspan { white-space:pre } 
		.s0 { fill: #ffffff } 
		.t1 { font-size: 300px;fill: #ffffff;font-weight: 800;font-family: "Arial" } 
    path {
      fill: black; /* modo claro */
    }

    @media (prefers-color-scheme: dark) {
      path {
        fill: white; /* modo oscuro */
      }
    }
	</style>
	<path id="Path 0" fill-rule="evenodd" class="s0" d="m515.86 45c9.97-0.03 14.21 0.35 15.15 1.38 0.84 0.9 1.44 6.44 1.98 28.86l14.85 1.34c8.16 0.74 15.15 0.99 15.53 0.57 0.38-0.42 1.53-5.96 2.54-12.31 1.01-6.35 2.06-12.41 2.33-13.47 0.36-1.45 1.63-1.92 5.15-1.93 2.57-0.01 9.13 0.76 14.57 1.7 5.44 0.94 10.26 2.06 10.71 2.48 0.44 0.43 0.08 5.97-0.81 12.32-0.89 6.35-1.63 12.65-1.64 14.01-0.01 2.03 0.74 2.59 4.11 3.09 2.26 0.33 8.32 1.88 13.46 3.43 5.14 1.56 10.71 3.26 12.37 3.79 2.98 0.95 3.11 0.78 9.34-11.68 3.48-6.95 6.94-12.89 7.7-13.19 0.75-0.3 4.71 0.98 8.79 2.86 4.08 1.87 9.05 4.72 11.05 6.32 1.99 1.6 3.6 3.53 3.57 4.28-0.03 0.76-1.99 5.46-4.36 10.45-2.37 4.99-6.25 13.77-8.62 19.51-2.38 5.74-5.93 14.65-7.89 19.79-1.97 5.14-5.04 13.05-6.84 17.58-1.79 4.54-3.85 8.61-4.56 9.06-0.72 0.44-55.72 0.8-122.23 0.8-66.51 0-121.55-0.36-122.31-0.8-0.77-0.45-7.07-17.63-14-38.19-6.93-20.55-12.61-38.24-12.62-39.3-0.02-1.22 2.67-3.5 7.4-6.27 4.08-2.39 9.27-5.11 11.54-6.04 3.3-1.36 4.4-1.43 5.51-0.33 0.77 0.76 2.99 5.46 4.95 10.45 1.95 4.98 3.57 9.44 3.58 9.89 0.01 0.45 0.88 1.98 1.92 3.39 1.81 2.43 2.09 2.48 5.75 0.97 2.12-0.88 9.04-2.89 15.39-4.47 6.35-1.58 12.53-2.88 13.74-2.88 2.05 0 2.14-0.46 1.36-6.89-0.47-3.79-1.46-10.2-2.2-14.25-0.76-4.1-0.94-7.76-0.41-8.25 0.52-0.48 4.48-1.47 8.79-2.19 4.32-0.72 10.94-1.34 14.72-1.37 3.78-0.04 7.1 0.31 7.39 0.76 0.28 0.46 1.39 6.61 4.43 26.51l13.74-0.54c7.56-0.3 14.73-0.73 15.94-0.96 1.55-0.29 2.44-1.65 3.01-4.6 0.45-2.31 0.73-8.69 0.64-14.18-0.09-5.49 0.24-10.31 0.75-10.72 0.5-0.4 7.14-0.75 14.74-0.78zm-7.13 64.4c-0.42 2.39-0.45 5.72-0.07 7.38 0.66 2.85 1.05 3.02 6.75 3.02h6.04c0-14.29-0.31-15.54-2.2-16.49-1.21-0.6-3.07-1.1-4.15-1.1-1.07 0-2.77 0.64-3.78 1.42-1 0.77-2.17 3.37-2.59 5.77zm-53.43 6.37l0.2 7.33c7.24-1.05 9.71-1.54 10.16-1.78 0.46-0.23 0.84-3.51 0.85-7.29 0.01-4.1-0.55-7.43-1.38-8.26-0.76-0.77-2.43-1.39-3.7-1.38-1.27 0.01-3.22 0.93-4.32 2.03-1.6 1.6-1.97 3.53-1.81 9.35zm108.2-0.68l0.27 6.27c6.82 1.39 9.42 1.53 10.17 1.22 0.81-0.34 1.38-2.61 1.38-5.53 0-2.72-0.74-6.67-1.65-8.79-1.36-3.16-2.23-3.85-4.92-3.85-2.15 0-3.65 0.75-4.39 2.2-0.63 1.21-1.01 5.02-0.86 8.48zm-156.57 9.47l0.2 7.33c5.53-1.03 7.52-1.65 7.99-2.04 0.46-0.38 0.71-4.17 0.55-8.4-0.26-6.81-0.56-7.73-2.56-8.02-1.24-0.17-3.19 0.61-4.32 1.74-1.65 1.65-2.02 3.51-1.86 9.39zm204.52-1.81c0.02 2.91 0.69 5.89 1.47 6.62 0.78 0.73 3.04 1.71 5.02 2.2l3.6 0.87c-0.03-11.66-0.65-15.2-1.69-16.76-0.91-1.36-2.64-2.47-3.83-2.47-1.19 0-2.72 0.95-3.39 2.12-0.68 1.17-1.21 4.51-1.18 7.42zm-99.89 87.17c0.3-0.01 45.07 44.52 99.48 98.95 54.42 54.43 99.1 99.83 99.3 100.88 0.25 1.31-30.87 33.12-98.38 100.57-54.32 54.27-99.25 98.67-99.85 98.68-0.61 0.01-45.62-44.52-100.04-98.96-54.41-54.43-99.11-99.58-99.32-100.32-0.22-0.75 44.3-46 98.93-100.57 54.63-54.56 99.57-99.22 99.88-99.23zm-47.82 76.64l6.6 8.32c-5.5 4.46-7.12 6.25-7.16 6.85-0.03 0.61 0.94 1.97 2.17 3.03 2.14 1.84 2.37 1.82 5.26-0.32 1.66-1.23 3.64-2.22 4.4-2.19 0.75 0.02 3.08 2.38 5.18 5.25 2.09 2.88 3.82 6.09 3.84 7.15 0.03 1.06-2.16 3.78-4.85 6.05-2.7 2.26-4.91 4.61-4.92 5.22 0 0.6 1.88 3.32 4.19 6.04l4.2 4.95c10.01-6.81 12.39-7.79 13.52-7.16 0.91 0.51 2.51 2.45 3.57 4.31l1.93 3.4c-5.54 5.67-8.14 7.85-9.35 8.5-1.86 1-2.01 1.59-0.98 3.76 0.67 1.42 2.53 4.19 4.13 6.15 1.59 1.97 3.39 3.58 4 3.58 0.6 0 3.07-1.74 5.49-3.85 2.42-2.12 5.39-3.85 6.6-3.85 1.21 0 2.53 0.62 2.94 1.37 0.42 0.76 1.59 5.34 2.62 10.17 1.03 4.84 2.96 11.02 4.28 13.74 1.99 4.06 2.16 5.17 0.96 6.18-1.03 0.88-5.33 0.98-14.65 0.36-7.72-0.51-16.83-0.43-21.98 0.19-4.84 0.59-11.4 2.03-14.57 3.22-3.17 1.18-7.63 3.31-9.89 4.73-2.27 1.43-5.89 4.52-8.04 6.87-2.16 2.36-5.03 6.76-6.38 9.78-1.36 3.03-3.02 8.96-3.7 13.2-0.93 5.79-0.92 9.52 0.06 15.11 0.71 4.08 2.37 9.28 3.7 11.54 1.32 2.27 3.72 5.86 5.34 7.97 1.61 2.12 3.56 5.83 4.33 8.25 0.96 3.01 1.18 7.61 0.71 14.56-0.38 5.6-0.32 10.36 0.13 10.6 0.45 0.24 4.29 0.61 8.52 0.82l7.69 0.4c-0.14-6.93-1.94-12.75-4.34-18.14-2.28-5.14-5.09-12.06-6.24-15.39-1.15-3.32-2.08-7.65-2.07-9.62 0.01-3.19 0.51-3.76 4.68-5.32 2.57-0.97 6.65-3.13 9.07-4.82 2.42-1.69 4.95-2.75 5.61-2.37 0.67 0.38 2.08 3.42 3.13 6.74 1.06 3.33 4.29 10.01 7.19 14.84 2.89 4.84 6.23 10.78 7.43 13.19 1.19 2.42 2.45 5.64 2.8 7.15 0.35 1.51 1.66 4.11 2.91 5.77 2.09 2.79 2.85 3.02 9.96 3.02 6.58 0 7.7-0.27 7.72-1.92 0.02-1.06-1.41-3.9-3.17-6.32-1.77-2.42-6.98-8.11-11.59-12.64-8.1-7.98-8.37-8.41-8.36-13.47 0-2.92 0.92-7.04 2.09-9.34 1.14-2.27 3-4.99 4.12-6.04 1.41-1.32 4.78-2.14 10.84-2.65 4.83-0.4 10.49-0.78 12.56-0.83l3.77-0.1c5.38 15.33 9.73 25.47 13.14 32.43 5.56 11.34 6.2 13.37 6.24 19.78 0.03 3.93 0.52 7.89 1.09 8.8 0.75 1.18 2.87 1.62 7.41 1.54 3.49-0.05 7.47-0.67 8.83-1.37 1.36-0.7 2.47-2.01 2.47-2.92 0-0.91-2.29-4.99-5.09-9.07-2.8-4.08-6.45-10.14-8.11-13.47-1.66-3.32-3.8-8.76-4.76-12.09-0.95-3.32-2.07-8.76-2.48-12.09-0.41-3.32-0.42-7.78-0.02-9.89 0.6-3.21 1.82-4.54 7.29-7.97 3.62-2.27 6.95-4.15 7.4-4.18 0.45-0.02 3.67 3.69 7.14 8.25 3.48 4.56 6.57 9.04 6.87 9.94 0.31 0.91-1.17 3.62-3.29 6.05-2.43 2.77-3.84 5.52-3.83 7.42 0.01 1.8 1.24 4.26 3.02 6.07 1.65 1.67 4.12 3.03 5.48 3.02 1.6-0.01 3.34-1.37 4.95-3.86 1.36-2.1 3.21-3.84 4.12-3.86 0.9-0.02 4.86 4.2 8.79 9.37 3.93 5.17 7.39 9.38 7.7 9.34 0.3-0.04 1.78-1.01 3.3-2.15l2.74-2.09c-15.48-20.16-20.51-27-21.16-28.21-0.88-1.62-0.76-4.06 0.44-9.34 0.9-3.93 1.91-9.87 2.25-13.19 0.6-5.83 0.48-6.16-3.1-9.18-2.85-2.41-4.41-2.99-6.73-2.48-1.67 0.37-4.26 0.42-5.77 0.11-1.56-0.31-2.55-1.14-2.29-1.92 0.25-0.75 0.74-2.73 1.09-4.4 0.42-1.96 2.09-3.86 4.77-5.42 2.27-1.31 5.85-3.71 7.97-5.32 2.11-1.62 5.63-5.61 7.81-8.88 2.18-3.26 4.74-8.41 5.68-11.43 0.94-3.02 1.98-7.48 2.32-9.89 0.33-2.42-0.14-7.86-1.04-12.1-0.91-4.23-2.88-9.92-4.38-12.64-1.5-2.72-5.07-7.34-7.93-10.26-2.88-2.94-8.41-6.88-12.33-8.8-6.63-3.23-7.95-3.47-18.72-3.47-10.78 0-12.08 0.24-18.7 3.48-3.92 1.92-9.6 5.91-12.62 8.87-3.03 2.96-6.74 7.93-8.25 11.04-1.51 3.11-3.49 5.67-4.39 5.7-0.91 0.02-2.2-0.82-2.86-1.88-0.67-1.06-7.96-10.71-16.22-21.44-8.25-10.73-15-20.38-15-21.44 0-1.06 1.48-2.91 3.29-4.12 1.8-1.21 3.42-2.77 3.6-3.46 0.17-0.69-0.89-2.29-2.36-3.55l-2.67-2.29-7.4 6c-5.51-5.51-7.41-7.12-7.79-7.13-0.38-0.01-1.87 0.9-3.3 2.02zm-19.79 48.87c-6.65 1.78-14.56 4.36-17.59 5.72-3.02 1.37-8.41 4.43-11.98 6.82-3.57 2.38-8.52 6.7-11 9.6-2.47 2.89-4.25 5.44-3.95 5.67 0.3 0.22 4.14-1.28 8.52-3.34 4.38-2.06 10.57-4.28 13.74-4.93 3.18-0.64 8.74-2.34 12.37-3.78 3.63-1.43 10.06-3.58 14.29-4.78 4.23-1.2 10.3-2.84 13.48-3.64 3.18-0.81 5.78-1.83 5.77-2.29-0.01-0.45-1.25-2.8-2.76-5.22-1.51-2.42-3.12-4.34-3.57-4.27-0.46 0.07-1.82 0.37-3.03 0.66-1.21 0.29-7.64 1.99-14.29 3.78zm4.95 22.82c-4.54 1.33-9.98 2.89-12.09 3.46-2.15 0.58-7.61 4.32-12.35 8.46-4.67 4.08-9.99 9.52-11.82 12.09-1.82 2.57-2.82 4.67-2.22 4.67 0.61 0 4.44-1.79 8.52-3.97 4.08-2.19 9.9-4.88 12.92-5.98 3.02-1.11 8.46-2.55 12.09-3.21 3.63-0.67 12.04-1.93 18.69-2.81 6.65-0.88 14.45-2.22 17.33-2.98 2.88-0.77 5.22-1.88 5.21-2.49-0.01-0.6-1.5-3.69-3.31-6.87-2.95-5.18-3.66-5.76-6.86-5.65-1.97 0.07-6.79 0.74-10.72 1.5-3.93 0.75-10.86 2.45-15.39 3.78zm111.58-42.69c4.91-0.06 9.67 0.63 13.19 1.92 3.02 1.1 7.47 3.26 9.89 4.78 2.42 1.52 6.09 4.7 8.16 7.06 2.07 2.36 5.03 7.01 6.57 10.34 2.41 5.19 2.81 7.6 2.83 17.04 0.03 10.52-0.14 11.29-3.82 18-2.11 3.86-6.2 9.18-9.07 11.82-2.87 2.64-5.96 4.81-6.87 4.81-0.9 0-1.9-1.12-2.2-2.48-0.31-1.36-1.27-5.93-2.15-10.17-1.52-7.29-1.49-7.85 0.55-10.71 1.18-1.67 2.52-5.49 2.98-8.49 0.71-4.75 1.18-5.51 3.57-5.77 2.01-0.23 2.83-1.05 3.07-3.06 0.17-1.51-0.38-3.49-1.22-4.4-0.85-0.9-2.8-3.87-4.34-6.59-1.82-3.23-4.26-5.67-7.02-7.02-3.12-1.53-5.67-1.93-9.73-1.5-3.02 0.31-7.97 1.7-10.99 3.08-3.02 1.38-7.72 3.36-10.44 4.41-4.26 1.64-4.95 2.34-4.95 5.04 0 2.62 0.5 3.18 3.02 3.41 1.67 0.15 3.25 0.89 3.52 1.65 0.26 0.75-0.77 3.1-2.3 5.22-1.53 2.12-3.24 5.08-3.8 6.6-0.79 2.11-0.58 3.19 0.92 4.7 1.06 1.08 3.3 1.95 4.96 1.93 1.66-0.02 3.02 0.46 3.02 1.06 0 0.61-0.99 2.58-2.19 4.4-1.21 1.81-2.7 3.3-3.3 3.3-0.61 0-5.55-5.94-10.99-13.2-5.45-7.25-10.16-13.81-10.48-14.56-0.33-0.76 0.66-4.22 2.19-7.7 1.54-3.47 4.64-8.36 6.91-10.86 2.27-2.5 6.1-5.89 8.52-7.53 2.42-1.65 6.62-3.77 9.34-4.72 2.73-0.95 8.41-1.76 12.65-1.81zm-38.39 49.93l2.52 2.2c1.4 1.21 3.97 4.3 5.73 6.87 1.76 2.57 2.96 5.42 2.65 6.32-0.3 0.91-1.29 1.65-2.19 1.65-0.91 0-2.89-1.85-4.4-4.12-1.51-2.27-3.1-6.1-3.53-8.52zm57.4 53.51c1.01 0.19 2 1.34 2.2 2.55 0.2 1.21-0.17 2.7-0.81 3.3-0.8 0.74-1.8 0.49-3.1-0.77-1.26-1.23-1.61-2.48-1.02-3.66 0.49-0.98 1.72-1.62 2.73-1.42z"/>
	<text id="AAV" style="transform: matrix(.994,0,0,.994,512.131,858.786)">
		<tspan x="-338.1" y="0" class="t1">A</tspan><tspan  y="0" class="t1">A</tspan><tspan  y="0" class="t1">V
</tspan>
	</text>
</svg>