<svg xmlns="http://www.w3.org/2000/svg" version="1.2" viewBox="0 0 1024 1024" width="1024" height="1024"><style>
		.s0 { fill: #2a4e6e } 
		.s1 { fill: #000000 } 
		.s2 { fill: #ffffff } 
	</style><g id="BG">
		<path id="Path 0" class="s0" d="m465 2c-9.63 0.97-23.69 2.71-31.25 3.88-7.56 1.17-21.06 3.65-30 5.51-8.94 1.87-25.02 5.96-35.75 9.1-10.73 3.13-25.57 7.95-33 10.72-7.43 2.76-20.25 7.99-28.5 11.63-8.25 3.63-20.85 9.59-28 13.24-7.15 3.65-17.5 9.22-23 12.37-5.5 3.15-18.32 11.27-28.5 18.06-10.18 6.78-24.86 17.43-32.64 23.66-7.78 6.23-19.93 16.56-27 22.95-7.07 6.39-18.04 16.98-24.36 23.53-6.32 6.55-16.37 17.75-22.33 24.88-5.96 7.13-13.89 17.02-17.62 21.97-3.73 4.95-10.61 14.63-15.3 21.5-4.68 6.88-10.96 16.55-13.96 21.5-2.99 4.95-9.09 15.75-13.55 24-4.45 8.25-10.65 20.63-13.76 27.5-3.12 6.88-7.82 17.9-10.45 24.5-2.63 6.6-6.84 18.07-9.35 25.5-2.52 7.43-6.41 20.25-8.66 28.5-2.24 8.25-5.61 22.43-7.48 31.5-1.87 9.07-4.34 23.14-5.47 31.25-1.14 8.11-2.74 22.29-3.56 31.5-0.82 9.22-1.49 27.88-1.5 41.5 0 14.42 0.63 31.74 1.53 41.5 0.84 9.21 2.44 23.27 3.56 31.25 1.12 7.98 3.57 21.92 5.44 31 1.87 9.08 5.19 23.02 7.38 31 2.19 7.98 6.08 20.8 8.66 28.5 2.57 7.7 6.82 19.4 9.45 26 2.63 6.6 7.33 17.63 10.45 24.5 3.11 6.88 9.3 19.25 13.75 27.5 4.44 8.25 11.57 20.63 15.83 27.5 4.26 6.88 11.69 18.13 16.51 25 4.82 6.88 12.96 17.79 18.09 24.25 5.14 6.46 14.01 17.04 19.71 23.5 5.7 6.46 15.72 16.92 22.25 23.25 6.54 6.33 17.06 16.05 23.38 21.6 6.33 5.56 16.9 14.28 23.5 19.39 6.6 5.1 19.65 14.35 29 20.55 9.35 6.2 21.5 13.85 27 17.01 5.5 3.16 16.98 9.25 25.5 13.54 8.52 4.28 21.13 10.24 28 13.23 6.88 2.99 18.57 7.7 26 10.46 7.43 2.77 22.27 7.6 33 10.73 10.73 3.14 26.7 7.21 35.5 9.04 8.8 1.84 22.07 4.29 29.5 5.45 7.43 1.16 22.5 2.98 33.5 4.05 13.93 1.35 27.74 1.95 45.5 1.95 17.76 0 31.57-0.6 45.5-1.95 11-1.07 26.08-2.89 33.5-4.05 7.42-1.16 20.7-3.61 29.5-5.45 8.8-1.83 24.77-5.9 35.5-9.04 10.73-3.13 25.58-7.96 33-10.73 7.42-2.76 19.13-7.48 26-10.47 6.88-3 19.48-8.95 28-13.22 8.52-4.28 20-10.36 25.5-13.52 5.5-3.16 18.33-11.29 28.5-18.07 10.17-6.78 24.8-17.37 32.5-23.54 7.7-6.16 17.83-14.64 22.5-18.83 4.67-4.19 13.62-12.58 19.87-18.63 6.25-6.05 16.04-16.29 21.75-22.75 5.71-6.46 14.58-17.04 19.72-23.5 5.13-6.46 13.27-17.38 18.09-24.25 4.82-6.88 12.25-18.13 16.51-25 4.26-6.88 11.38-19.25 15.82-27.5 4.44-8.25 11.09-21.75 14.77-30 3.68-8.25 8.39-19.27 10.46-24.5 2.06-5.23 6.06-16.48 8.87-25 2.81-8.52 6.7-21.35 8.65-28.5 1.95-7.15 5.08-20.42 6.95-29.5 1.87-9.08 4.34-23.14 5.47-31.25 1.14-8.11 2.74-22.29 3.56-31.5 0.82-9.3 1.49-27.87 1.49-41.75 0.01-14.55-0.62-31.69-1.49-41-0.83-8.8-2.43-22.75-3.56-31-1.13-8.25-3.59-22.43-5.47-31.5-1.87-9.07-5.19-23.02-7.38-31-2.18-7.98-6.31-21.48-9.17-30-2.86-8.52-8.09-22.48-11.62-31-3.54-8.52-9.52-21.8-13.29-29.5-3.78-7.7-11-21.2-16.04-30-5.05-8.8-13.46-22.3-18.7-30-5.23-7.7-12.57-18.05-16.3-23-3.74-4.95-11.64-14.85-17.57-22-5.92-7.15-18.67-20.89-28.33-30.53-9.66-9.65-23.19-22.33-30.06-28.19-6.88-5.85-17-14.1-22.5-18.33-5.5-4.23-17.65-12.77-27-18.97-9.35-6.21-21.5-13.87-27-17.03-5.5-3.16-16.98-9.25-25.5-13.54-8.52-4.28-21.13-10.24-28-13.23-6.88-2.99-18.58-7.7-26-10.46-7.42-2.77-22.27-7.6-33-10.73-10.73-3.14-26.7-7.21-35.5-9.04-8.8-1.84-22.08-4.29-29.5-5.45-7.42-1.16-22.5-2.98-33.5-4.05-14.9-1.45-27.01-1.92-47.5-1.83-18.12 0.08-33.47 0.72-45 1.88z"></path>
		<path id="Path 1" class="s1" d="m478.5 21.06c-4.95 0.44-13.95 1.31-20 1.95-6.05 0.63-20.23 2.69-31.5 4.58-11.27 1.88-28.38 5.48-38 7.99-9.63 2.51-23.13 6.39-30 8.63-6.88 2.23-18.69 6.47-26.25 9.42-7.56 2.96-20.39 8.42-28.5 12.15-8.11 3.72-21.95 10.76-30.75 15.63-8.8 4.88-22.97 13.48-31.5 19.11-8.53 5.63-19.78 13.46-25 17.39-5.22 3.94-14.22 11.08-19.98 15.88-5.77 4.79-15.64 13.66-21.95 19.71-6.31 6.05-15.99 15.74-21.52 21.53-5.53 5.79-13.81 15.02-18.41 20.5-4.6 5.48-12.41 15.37-17.36 21.97-4.96 6.6-12.7 17.62-17.22 24.5-4.51 6.87-9.92 15.43-12.02 19-2.1 3.57-7.39 13.25-11.75 21.5-4.36 8.25-10.34 20.4-13.29 27-2.95 6.6-7.59 17.62-10.31 24.5-2.72 6.87-6.85 18.35-9.17 25.5-2.32 7.15-6.2 20.76-8.62 30.25-2.42 9.49-5.73 24.56-7.35 33.5-1.62 8.94-3.64 22.32-4.48 29.75-0.85 7.43-2 20.36-2.55 28.75-0.56 8.39-1.02 22-1.02 30.25 0 8.25 0.46 21.86 1.02 30.25 0.55 8.39 1.72 21.33 2.57 28.75 0.86 7.42 2.88 20.81 4.49 29.75 1.61 8.94 4.9 24.01 7.32 33.5 2.42 9.49 6.3 23.1 8.63 30.25 2.32 7.15 6.82 19.52 9.99 27.5 3.17 7.98 7.88 19.23 10.47 25 2.58 5.77 7.2 15.23 10.26 21 3.07 5.77 8.28 15.23 11.59 21 3.31 5.77 8.92 15 12.47 20.5 3.55 5.5 9.19 13.83 12.54 18.5 3.34 4.67 9.44 12.77 13.55 18 4.11 5.23 10.59 13.1 14.39 17.5 3.8 4.4 13.51 14.69 21.56 22.87 8.06 8.18 19.6 19.23 25.65 24.55 6.05 5.33 14.37 12.41 18.5 15.74 4.12 3.32 12.45 9.64 18.5 14.04 6.05 4.4 16.62 11.57 23.5 15.94 6.87 4.38 16.1 10.01 20.5 12.52 4.4 2.51 14.3 7.75 22 11.64 7.7 3.9 17.6 8.72 22 10.74 4.4 2.01 13.18 5.69 19.5 8.17 6.32 2.49 16 6.06 21.5 7.94 5.5 1.88 16.07 5.18 23.5 7.34 7.43 2.15 19.57 5.27 27 6.92 7.43 1.66 20.02 4.12 28 5.48 7.98 1.36 21.93 3.29 31 4.28 12.57 1.37 24.47 1.8 50 1.8 25.53 0 37.43-0.43 50-1.8 9.08-0.99 23.02-2.92 31-4.28 7.98-1.36 20.58-3.82 28-5.48 7.42-1.65 19.58-4.77 27-6.92 7.42-2.16 18-5.46 23.5-7.34 5.5-1.88 15.17-5.45 21.5-7.94 6.33-2.48 15.1-6.17 19.5-8.19 4.4-2.03 14.3-6.85 22-10.73 7.7-3.88 17.6-9.11 22-11.63 4.4-2.51 13.4-7.99 20-12.18 6.6-4.19 16.27-10.7 21.5-14.47 5.23-3.77 13.77-10.23 19-14.35 5.23-4.13 14.45-11.87 20.5-17.21 6.05-5.34 17.59-16.4 25.64-24.58 8.04-8.18 17.74-18.47 21.54-22.87 3.8-4.4 10.28-12.27 14.41-17.5 4.13-5.23 10.68-14 14.56-19.5 3.88-5.5 9.51-13.83 12.52-18.5 3.01-4.67 8.18-13.23 11.48-19 3.31-5.77 8.29-14.77 11.07-20 2.79-5.23 7.4-14.67 10.26-21 2.86-6.33 7.8-18.02 10.99-26 3.18-7.98 7.68-20.35 10-27.5 2.31-7.15 6.16-20.65 8.55-30 2.39-9.35 5.51-23.3 6.92-31 1.42-7.7 3.45-20.98 4.52-29.5 1.06-8.52 2.41-22.7 2.99-31.5 0.58-8.8 1.06-22.64 1.05-30.75 0-8.11-0.46-21.61-1.02-30-0.56-8.39-1.7-21.1-2.53-28.25-0.83-7.15-2.63-19.52-4-27.5-1.37-7.98-4.49-22.6-6.92-32.5-2.44-9.9-6.53-24.52-9.1-32.5-2.56-7.98-7.27-21.02-10.46-29-3.2-7.98-7-17.2-8.46-20.5-1.46-3.3-6.06-12.75-10.21-21-4.16-8.25-9.62-18.6-12.13-23-2.52-4.4-8-13.4-12.19-20-4.19-6.6-10.7-16.28-14.47-21.5-3.77-5.22-10.24-13.78-14.37-19-4.14-5.22-11.88-14.45-17.21-20.5-5.33-6.05-16.38-17.59-24.56-25.65-8.18-8.05-18.47-17.76-22.87-21.56-4.4-3.8-12.27-10.28-17.5-14.39-5.23-4.11-13.33-10.21-18-13.56-4.67-3.35-13.67-9.45-20-13.55-6.33-4.11-18.7-11.46-27.5-16.35-8.8-4.89-22.64-11.94-30.75-15.66-8.11-3.73-20.94-9.19-28.5-12.15-7.56-2.95-19.38-7.19-26.25-9.42-6.88-2.24-20.38-6.11-30-8.61-9.63-2.5-24.02-5.68-32-7.07-7.98-1.39-19.45-3.22-25.5-4.06-6.05-0.84-18.88-2.19-28.5-3-9.65-0.81-27.37-1.41-39.5-1.34-12.1 0.08-26.05 0.5-31 0.93z"></path>
	</g><g id="planeta">
		<path id="Path 0" class="s0" d="m471.5 106.61c-7.15 0.76-18.63 2.29-25.5 3.39-6.88 1.1-19.02 3.54-27 5.42-7.98 1.88-20.35 5.2-27.5 7.38-7.15 2.17-19.98 6.7-28.5 10.06-8.52 3.35-22.48 9.52-31 13.7-8.52 4.18-19.77 10.11-25 13.18-5.23 3.06-15.35 9.53-22.5 14.36-7.15 4.84-17.95 12.65-24 17.36-6.05 4.72-16.59 13.63-23.42 19.81-6.83 6.17-17.35 16.63-23.38 23.23-6.02 6.6-15.3 17.4-20.62 24-5.32 6.6-14.42 19.2-20.23 28-5.8 8.8-12.84 20.05-15.64 25-2.8 4.95-8.67 16.43-13.03 25.5-4.37 9.07-10.22 22.57-12.99 30-2.78 7.43-6.88 19.57-9.13 27-2.24 7.43-5.63 20.48-7.53 29-1.9 8.52-4.36 21.8-5.46 29.5-1.1 7.7-2.53 20.3-3.17 28-0.72 8.73-0.94 23.97-0.59 40.5 0.39 18.2 1.22 31.36 2.64 42 1.13 8.52 3 20.23 4.13 26 1.14 5.77 3.58 16.58 5.44 24 1.85 7.42 5.23 19.13 7.51 26 2.28 6.88 6.3 17.9 8.95 24.5 2.64 6.6 7.02 16.73 9.74 22.5 2.72 5.77 8.2 16.35 12.18 23.5 3.99 7.15 11.9 19.98 17.59 28.5 5.69 8.52 16.12 22.7 23.18 31.5 7.06 8.8 19.6 22.75 27.87 31 8.27 8.25 21.55 20.23 29.5 26.61 7.95 6.39 22.56 16.97 32.46 23.5 9.91 6.54 23.41 14.81 30 18.37 6.6 3.56 18.07 9.24 25.5 12.62 7.43 3.38 20.7 8.86 29.5 12.18 8.8 3.32 20.73 7.41 26.5 9.09 5.77 1.68 16.35 4.38 23.5 6 7.15 1.62 19.07 3.89 26.5 5.04 7.43 1.16 17.77 2.55 23 3.11 5.23 0.55 18.73 1.29 30 1.64 12.75 0.39 26.74 0.18 37-0.58 9.08-0.66 23.92-2.32 33-3.69 9.08-1.36 21.45-3.61 27.5-4.99 6.05-1.38 17.08-4.1 24.5-6.05 7.42-1.95 20.02-5.95 28-8.89 7.98-2.95 19.67-7.65 26-10.46 6.33-2.81 17.8-8.38 25.5-12.39 7.7-4 18.73-10.32 24.5-14.03 5.77-3.71 12.75-8.29 15.5-10.17 2.75-1.89 9.86-7.14 15.8-11.67 5.93-4.53 14.48-11.34 19-15.14 4.51-3.79 15.35-14.14 24.08-23 8.73-8.85 20.03-21.27 25.11-27.6 5.07-6.33 12.13-15.55 15.68-20.5 3.55-4.95 8.65-12.37 11.32-16.5 2.68-4.12 7.75-12.45 11.27-18.5 3.52-6.05 9.47-17.3 13.21-25 3.74-7.7 9.29-20.3 12.31-28 3.03-7.7 7.17-19.17 9.2-25.5 2.02-6.33 5.4-18.48 7.49-27 2.1-8.52 4.98-22.7 6.4-31.5 1.42-8.8 3.26-23.87 4.1-33.5 0.84-9.62 1.52-24.25 1.52-32.5 0-8.25-0.66-22.43-1.46-31.5-0.8-9.07-2.15-21.23-3-27-0.86-5.77-2.48-15.23-3.61-21-1.12-5.77-3.57-16.35-5.43-23.5-1.86-7.15-5.02-17.95-7.02-24-2-6.05-5.93-16.85-8.74-24-2.81-7.15-8.8-20.43-13.32-29.5-4.52-9.07-11.89-22.57-16.4-30-4.5-7.43-11.38-18-15.29-23.5-3.9-5.5-9.6-13.15-12.65-17-3.05-3.85-9.43-11.5-14.19-17-4.75-5.5-15.11-16.32-23.01-24.05-7.9-7.73-20.45-18.89-27.87-24.79-7.42-5.91-18.67-14.26-25-18.58-6.33-4.31-15.55-10.29-20.5-13.28-4.95-3-14.17-8.2-20.5-11.56-6.33-3.36-17.12-8.56-24-11.54-6.87-2.99-18.12-7.54-25-10.12-6.87-2.58-18.58-6.42-26-8.54-7.42-2.12-19.58-5.24-27-6.93-7.42-1.69-20.02-3.98-28-5.09-7.98-1.11-19.45-2.47-25.5-3.02-6.05-0.55-22.25-0.95-36-0.89-13.75 0.06-30.85 0.74-38 1.5z"></path>
		<path id="Path 1" class="s2" d="m479.92 584.32c-4.18 0.58-12.5 1.67-18.5 2.43-6.01 0.75-17.9 2.9-26.42 4.78-8.52 1.87-21.46 5.45-28.75 7.94-7.29 2.49-17.41 6.16-22.5 8.16-5.09 2-15.55 6.69-23.25 10.43-7.7 3.74-19.4 10.05-26 14.02-6.6 3.98-17.63 11.27-24.5 16.21-6.88 4.94-16.1 12.03-20.5 15.75-4.4 3.72-11.87 10.52-16.6 15.11-4.73 4.59-12.2 12.4-16.61 17.35-4.41 4.95-11.03 12.82-14.71 17.5-3.68 4.67-7.25 9.17-7.92 10-0.68 0.82-4.19 6-7.82 11.5-3.63 5.5-9.17 14.5-12.3 20-3.14 5.5-5.56 10.54-5.37 11.2 0.18 0.65 5.55 6.95 11.92 14 6.38 7.04 17.18 17.83 24 23.98 6.83 6.14 16.55 14.47 21.61 18.5l9.21 7.32c16.73-0.24 17.79-0.48 19.65-2.62 1.13-1.31 2.37-4.52 2.75-7.13 0.38-2.61 1.03-4.96 1.44-5.21 0.41-0.26 3.34 1.09 6.5 3 4.72 2.84 6.6 3.42 10.47 3.21 3.95-0.21 4.96-0.69 6.25-2.96 1.32-2.34 1.36-3.69 0.28-9.75-0.69-3.87-2.44-10.53-3.9-14.79-1.46-4.26-3.42-8.88-4.36-10.25-0.94-1.38-3.01-3.37-4.6-4.44-1.59-1.06-5.82-2.92-9.39-4.12-3.57-1.21-6.47-2.59-6.43-3.07 0.05-0.48 1.62-1.93 3.5-3.22 3.08-2.1 4.17-2.28 10.68-1.75l7.25 0.6c3.82-6.14 3.97-7.5 3.36-15.5-0.65-8.72-0.6-9.05 1.73-10.76 1.81-1.32 4.34-1.75 10.16-1.75 4.26 0.01 8.76 0.39 10 0.86 1.24 0.47 2.53 1.71 2.88 2.75 0.35 1.05-0.45 5.05-1.76 8.9-1.32 3.85-2.39 8.69-2.38 10.75 0 2.06 1.14 5.89 2.51 8.5 1.38 2.61 2.49 6.1 2.47 7.75-0.02 1.81 0.81 3.79 2.1 5 1.48 1.38 3.42 1.97 6.29 1.9 2.44-0.05 7.21-1.51 11.64-3.56 4.12-1.91 10.65-5.54 14.5-8.07 3.85-2.52 10.82-7.86 15.5-11.85 4.68-4 12.51-11.13 17.41-15.84 4.91-4.72 11.1-10.83 13.77-13.58 2.67-2.75 5.52-6.46 6.33-8.25 0.82-1.79 1.49-3.93 1.49-4.75 0-0.83-1.35-2.85-3-4.5q-3-3-6-3c-1.65 0-5.14 0.5-7.75 1.1-4.62 1.07-4.83 1.02-7.75-2-1.74-1.8-4.47-3.35-6.5-3.7-2.65-0.45-5.81 0.29-13 3.08-5.23 2.03-12.2 4.53-15.5 5.57-3.3 1.03-10.05 2.81-15 3.96-6.08 1.41-9.32 1.75-10 1.07q-1-1.02 0.34-3.8c1.01-2.09 1.07-3.34 0.25-5.03-0.6-1.24-2.1-2.93-3.34-3.76-1.24-0.83-3.82-1.49-5.75-1.48-1.93 0.02-5.3 0.86-7.5 1.86-2.2 1.01-7.71 5.05-12.25 8.98-4.54 3.93-9.15 7.15-10.25 7.15-1.1 0-4.36-0.5-7.25-1.12-4.03-0.86-6.53-0.82-10.75 0.16-4.74 1.1-6.29 1.05-11.25-0.38-3.16-0.91-7.66-1.68-10-1.69-2.75-0.03-5.22 0.68-7 2-1.51 1.11-3.9 4.39-5.3 7.28-1.41 2.89-3.32 5.82-4.25 6.52-0.94 0.69-3.61 1.26-5.95 1.25-3.19-0.02-4.88-0.65-6.75-2.52l-2.5-2.5c3.52-6.59 7.52-12.33 11.15-17 3.63-4.68 12.85-14.98 20.48-22.9 7.63-7.93 19.04-18.87 25.37-24.31 6.32-5.45 19.37-15.2 29-21.67 9.62-6.46 23.57-14.79 31-18.5 9.36-4.68 14.19-6.58 15.75-6.19 1.24 0.32 3.49-0.09 5-0.89 2.61-1.39 2.9-1.31 5.75 1.59 1.65 1.68 4.35 3.75 6 4.61 2.48 1.29 5.34 1.45 16.5 0.92 10.6-0.49 15-0.28 20.5 0.98 3.85 0.88 9.92 1.69 13.5 1.79 5.22 0.15 8.07 0.93 14.5 3.99 4.4 2.1 9.57 4.03 11.5 4.3 1.92 0.27 8.11-0.46 13.75-1.61 5.64-1.16 13.06-2.12 16.5-2.13l6.25-0.02c2.59 8.19 3.97 10.14 6.5 11.8 2.02 1.33 4.98 2.28 7 2.26 1.92-0.02 7.33-1.83 12-4.02 6.27-2.93 9.81-3.99 13.5-4.01 2.75-0.02 6.8-0.45 9-0.95 2.88-0.65 5.12-2.18 8-5.48l4-4.58c20.15-3.88 31.62-5.28 38.5-5.62 10.51-0.52 14.13-0.27 22.75 1.51 5.64 1.17 13.17 2.13 16.75 2.13 4.8 0 7.94-0.65 12-2.5 3.02-1.38 6.17-2.5 7-2.5 0.83 0 6.79 2.74 13.25 6.1 6.46 3.35 18.5 10.61 26.75 16.12 8.25 5.52 18.6 12.85 23 16.29 4.4 3.45 12.95 10.86 19 16.48 6.05 5.62 11.9 11.19 13 12.38 1.1 1.19 6.08 6.66 11.06 12.15 4.98 5.49 11.1 12.68 13.59 15.98 2.49 3.3 8.34 11.62 13 18.5 4.65 6.87 10.91 16.9 13.91 22.28 2.99 5.37 5.67 9.76 5.94 9.75 0.27-0.02 1.82-1.72 3.44-3.78l2.95-3.75c-6.89-13.07-12.29-22.29-16.45-28.93-4.16-6.64-10.64-16.12-14.39-21.07-3.76-4.95-9.54-12.15-12.84-16-3.31-3.85-10.78-11.73-16.61-17.51-5.83-5.78-13.98-13.26-18.1-16.6-4.13-3.35-12.67-9.84-19-14.43-6.33-4.58-15.33-10.64-20-13.46-4.67-2.81-12.33-7.16-17-9.65-4.67-2.49-15.48-7.7-24-11.57-8.52-3.87-21.13-9.1-28-11.62-6.88-2.52-17.23-5.92-23-7.57-5.77-1.65-14.55-3.89-19.5-4.98-4.95-1.09-13.27-2.72-18.5-3.62-5.23-0.9-16.02-2.27-24-3.04-8.1-0.79-24.2-1.36-36.5-1.3-12.1 0.06-25.41 0.59-29.58 1.17zm131.33 146.8c-2.89 0.48-7.61 1.76-10.5 2.84-2.89 1.08-8.06 3.78-11.5 6-3.44 2.22-6.81 4.05-7.5 4.07-0.69 0.01-2.38-1.16-3.75-2.6-1.38-1.44-3.74-3.25-5.25-4.03q-2.75-1.4-5-0.53c-1.24 0.48-2.75 1.49-3.36 2.25-0.61 0.76-1.42 2.73-1.8 4.38-0.44 1.95-0.06 4.66 1.11 7.75 1.6 4.22 1.64 4.92 0.3 6.34-1.09 1.16-2.53 1.43-5.25 1-2.15-0.34-5.56-2.08-8-4.09-2.34-1.93-5.71-4.18-7.5-5-2.6-1.2-4-1.28-6.97-0.39-2.7 0.81-4.55 2.36-6.75 5.68-1.67 2.52-3.82 5.39-4.78 6.39-0.96 1-2.31 1.84-3 1.86-0.69 0.02-2.64-2.79-4.34-6.25-1.7-3.46-4.52-7.53-6.25-9.04-1.74-1.51-5.07-3.25-7.41-3.85-2.34-0.61-6.28-0.82-8.75-0.48-2.48 0.35-6.86 1.97-9.75 3.61-2.89 1.63-9.41 6.41-14.5 10.61-5.09 4.2-11.22 9.27-13.62 11.25-2.4 1.99-5.66 5.86-7.24 8.61-1.58 2.75-2.87 5.9-2.88 7 0 1.1 0.89 3.35 1.98 5 1.09 1.65 2.55 3.76 3.25 4.69 1.05 1.41 0.93 2.04-0.74 3.82-1.1 1.17-4.25 3.38-7 4.91-2.75 1.54-6.46 4.43-8.25 6.43-3.05 3.43-3.25 4.1-3.25 11.15 0 4.12-0.34 7.7-0.75 7.96-0.41 0.25-3.11-1.1-6-3-3.05-2.01-6.51-3.46-8.25-3.46q-3 0.01-5.53 2.75c-1.55 1.68-2.53 3.91-2.52 5.75 0.01 1.8 1.77 5.79 4.42 10 2.43 3.85 4.69 8.46 5.02 10.25 0.36 1.92 1.73 4.06 3.36 5.24 1.51 1.09 3.31 2.44 4 3 0.69 0.56 1.24 2.92 1.23 5.26 0 2.34-0.34 4.83-0.75 5.54-0.4 0.7-5.01 2.17-10.23 3.25-5.23 1.08-11.5 2.98-13.93 4.21-2.44 1.24-6.17 4.27-8.29 6.75-2.12 2.47-3.83 4.84-3.81 5.25 0.01 0.41 2.39 1.43 5.28 2.25 2.89 0.83 12.45 3.29 21.25 5.46 8.8 2.18 21.62 4.87 28.5 5.99 6.87 1.11 19.7 2.7 28.5 3.54 9.16 0.87 26.16 1.52 39.75 1.51 18.32 0 23.76-0.29 23.78-1.25 0.01-0.69-0.32-1.63-0.75-2.1-0.43-0.46-1.57-2.94-2.53-5.5-0.96-2.56-1.75-4.99-1.75-5.4 0-0.41 0.67-0.75 1.5-0.75 0.83 0 2.74 0.62 4.25 1.37 1.51 0.76 4.33 3.67 6.25 6.48 3.22 4.69 3.82 5.1 7.5 5.12 2.2 0.01 10.3-0.9 18-2.02 10.28-1.49 14.35-2.48 15.33-3.74q1.32-1.71 0.76-6.21c-0.37-2.88-1.39-5.23-2.83-6.54-1.24-1.11-5.52-3.25-9.51-4.75-4.19-1.56-7.9-3.66-8.79-4.96-0.85-1.24-1.41-3.38-1.25-4.75 0.21-1.82 0.97-2.58 2.79-2.8 1.47-0.17 4.15 0.83 6.5 2.43 2.2 1.49 5.8 4.43 8 6.53 2.2 2.09 5.8 4.78 8 5.96 2.89 1.56 4.97 2 7.5 1.57 2.38-0.4 5.67-2.53 10.25-6.64 3.71-3.33 7.65-6.05 8.75-6.05 1.83 0 2 0.66 1.98 7.75-0.01 5.07 0.47 8.44 1.39 9.75 1.39 1.97 1.56 1.95 13.27-1.86 6.52-2.12 18.16-6.34 25.86-9.37 7.7-3.03 19.4-8.07 26-11.2 6.6-3.13 18.08-9.21 25.5-13.52 7.42-4.31 15.41-9.12 17.75-10.69 4.01-2.7 4.18-3.01 3-5.38-1.06-2.15-0.99-2.79 0.48-4.25 1.64-1.64 1.86-1.61 4.25 0.52l2.52 2.25c11.62-8.53 15-11.23 15-11.5 0-0.28-0.75-3.31-1.66-6.75-1.6-6.02-1.58-6.61 0.5-16l2.16-9.75c-3.95-7.37-6.1-9.31-11-12.06-3.58-2.02-7.17-4.8-8-6.2-1.12-1.9-1.22-2.88-0.38-3.89 0.62-0.74 3.77-2.42 7-3.73 5.35-2.16 6.19-2.25 9.3-1 1.88 0.76 5.26 3.43 7.5 5.93 2.24 2.5 5.42 6.77 7.06 9.5 2.78 4.63 3 5.73 3.34 16.95 0.2 6.6 0.66 12.3 1.02 12.67 0.36 0.37 3.3-1.66 6.52-4.5l5.87-5.17c-3.88-11.63-5.52-17.25-6.14-20-0.61-2.75-1.74-9.28-2.49-14.5-0.76-5.3-1.02-10.61-0.58-12 0.42-1.38 2.01-5.2 3.51-8.5 2.37-5.2 2.59-6.47 1.67-9.5-0.58-1.93-1.65-4.07-2.38-4.76-0.73-0.69-3.12-1.52-5.32-1.85-3.01-0.46-6.1 0.14-12.5 2.4-5 1.77-12.52 3.47-18.25 4.11-5.36 0.61-12.45 1.1-15.75 1.1-4.13 0-7.87-0.78-12-2.5-4.93-2.06-7.64-2.5-15.25-2.5-8.88 0.01-9.63 0.19-18.75 4.5-5.98 2.83-10.89 4.49-13.25 4.5-2.31 0-8.74-2.11-16.75-5.5-7.15-3.03-15.81-5.95-19.25-6.49-3.44-0.55-7.6-0.95-9.25-0.89-1.65 0.06-5.36 0.51-8.25 1z"></path>
		<path id="Path 2" fill-rule="evenodd" class="s1" d="m509 115.15c4.67-0.08 15.92 0.32 25 0.88 9.08 0.56 21.9 1.72 28.5 2.57 6.6 0.85 16.95 2.43 23 3.51 6.05 1.08 17.98 3.77 26.5 5.98 8.52 2.21 19.55 5.41 24.5 7.1 4.95 1.7 14.63 5.31 21.5 8.03 6.88 2.71 18.58 7.85 26 11.42 7.42 3.56 17.55 8.78 22.5 11.6 4.95 2.81 13.27 7.82 18.5 11.12 5.23 3.3 13.55 8.91 18.5 12.48 4.95 3.56 13.5 10.18 19 14.7 5.5 4.52 14.5 12.36 20 17.42 5.5 5.07 14.44 14.01 19.88 19.87 5.43 5.87 13.34 14.94 17.58 20.17 4.23 5.23 10.61 13.55 14.18 18.5 3.56 4.95 8.51 12.15 10.99 16 2.48 3.85 7.24 11.73 10.57 17.5 3.32 5.77 7.86 14.1 10.07 18.5 2.21 4.4 6.81 14.52 10.22 22.5 3.41 7.98 8.2 20.35 10.64 27.5 2.45 7.15 5.99 18.62 7.88 25.5 1.89 6.87 4.56 18.12 5.94 25 1.38 6.87 3.5 19.93 4.73 29 1.91 14.14 2.24 21.14 2.28 49 0.02 20.69-0.43 36.32-1.25 43-0.71 5.77-2.39 17.02-3.73 25-1.35 7.98-3.78 19.9-5.4 26.5-1.62 6.6-4.58 17.4-6.58 24-2 6.6-5.92 17.85-8.7 25-2.78 7.15-8.4 19.98-12.49 28.5-4.08 8.52-9.72 19.55-12.52 24.5-2.79 4.95-9.73 15.98-15.4 24.5-5.68 8.52-13.37 19.38-23.89 32.75l-4.5-8.56c-2.48-4.7-7.9-13.98-12.06-20.62-4.16-6.64-10.64-16.12-14.39-21.07-3.76-4.95-9.54-12.15-12.84-16-3.31-3.85-10.78-11.73-16.61-17.51-5.83-5.78-13.97-13.26-18.1-16.6-4.12-3.35-12.67-9.84-19-14.43-6.33-4.58-15.33-10.64-20-13.46-4.67-2.81-12.33-7.16-17-9.65-4.67-2.49-15.48-7.7-24-11.57-8.52-3.87-21.12-9.1-28-11.62-6.87-2.52-17.23-5.92-23-7.57-5.77-1.65-14.55-3.89-19.5-4.98-4.95-1.09-13.27-2.72-18.5-3.62-5.23-0.9-16.02-2.27-24-3.04-7.98-0.78-23.73-1.41-35-1.42-11.69-0.01-26.3 0.64-34 1.49-7.43 0.83-17.55 2.2-22.5 3.05-4.95 0.84-15.07 2.92-22.5 4.61-7.43 1.68-19.24 5.04-26.25 7.44-7.01 2.41-16.91 6.01-22 8.01-5.09 2-15.55 6.69-23.25 10.43-7.7 3.74-19.4 10.05-26 14.02-6.6 3.98-17.62 11.27-24.5 16.21-6.87 4.94-16.1 12.03-20.5 15.75-4.4 3.72-11.87 10.52-16.6 15.11-4.73 4.59-12.2 12.4-16.61 17.35-4.41 4.95-11.03 12.83-14.71 17.5-3.68 4.67-7.25 9.17-7.92 10-0.68 0.83-4.19 6-7.82 11.5-3.63 5.5-9.24 14.61-12.47 20.25-4.86 8.49-6.11 10.04-7.24 9-0.76-0.69-5.42-6.65-10.37-13.25-4.95-6.6-12.23-16.95-16.19-23-3.95-6.05-9.24-14.6-11.76-19-2.51-4.4-7.26-13.4-10.57-20-3.31-6.6-8.14-16.95-10.74-23-2.6-6.05-7.36-18.88-10.58-28.5-3.22-9.63-7.19-22.9-8.82-29.5-1.64-6.6-3.9-16.95-5.03-23-1.13-6.05-2.71-15.95-3.51-22-0.8-6.05-1.99-20.23-2.63-31.5-0.86-15.28-0.88-25.46-0.05-40 0.61-10.73 1.79-24.68 2.62-31 0.84-6.32 2.22-15.55 3.07-20.5 0.85-4.95 3.09-15.3 4.96-23 1.88-7.7 5.05-19.18 7.05-25.5 2-6.32 6.12-17.8 9.14-25.5 3.03-7.7 8.41-20.07 11.95-27.5 3.55-7.43 8.74-17.55 11.54-22.5 2.81-4.95 9.24-15.3 14.3-23 5.06-7.7 12.71-18.5 17.01-24 4.29-5.5 11.71-14.5 16.5-20 4.78-5.5 14.06-15.18 20.62-21.5 6.56-6.32 16.41-15.25 21.9-19.84 5.48-4.58 13.11-10.71 16.96-13.62 3.85-2.92 11.73-8.43 17.5-12.26 5.77-3.84 14.77-9.48 20-12.54 5.23-3.06 15.8-8.73 23.5-12.59 7.7-3.86 20.52-9.7 28.5-12.97 7.98-3.27 19.68-7.61 26-9.65 6.32-2.04 17.35-5.21 24.5-7.04 7.15-1.83 19.52-4.46 27.5-5.85 7.98-1.38 18.77-3.03 24-3.66 5.23-0.63 15.35-1.49 22.5-1.91 7.15-0.43 16.82-0.84 21.5-0.92zm-125.35 510.94c2.39 2.15 5.59 4.2 7.1 4.56 1.51 0.36 8.38 0.36 15.25 0.01 9.78-0.51 14.02-0.3 19.5 0.97 3.85 0.89 9.93 1.7 13.5 1.8 5.22 0.15 8.07 0.93 14.5 3.99 4.4 2.1 9.57 4.03 11.5 4.3 1.93 0.27 8.11-0.46 13.75-1.61 5.64-1.16 13.06-2.12 22.75-2.15l1.5 4.75c1.09 3.44 2.47 5.39 5 7.05 2.02 1.33 4.98 2.28 7 2.26 1.92-0.02 7.33-1.83 12-4.02 6.27-2.93 9.81-3.99 13.5-4.01 2.75-0.02 6.8-0.45 9-0.95 2.88-0.65 5.12-2.18 12-10.06l13-2.5c7.15-1.38 18.63-2.78 25.5-3.12 10.51-0.52 14.13-0.27 22.75 1.51 5.64 1.17 13.17 2.13 16.75 2.13 4.8 0 7.94-0.65 12-2.5 3.02-1.38 6.17-2.5 7-2.5 0.83 0 6.79 2.74 13.25 6.1 6.46 3.35 18.5 10.61 26.75 16.12 8.25 5.52 18.6 12.85 23 16.29 4.4 3.45 12.95 10.86 19 16.48 6.05 5.62 11.9 11.19 13 12.38 1.1 1.19 6.08 6.66 11.06 12.15 4.98 5.49 11.09 12.68 13.56 15.98 2.48 3.3 7.91 10.95 12.06 17 4.16 6.05 10.32 15.84 13.69 21.75 3.37 5.91 6.13 11.42 6.13 12.25 0 0.83-6.19 7.84-27.5 29.7l-1.8-4.35c-1-2.39-2.66-7.73-3.69-11.85-1.04-4.13-2.54-12-3.33-17.5-0.81-5.62-1.1-11.1-0.66-12.5 0.42-1.38 2.01-5.2 3.51-8.5 2.37-5.2 2.59-6.47 1.67-9.5-0.58-1.92-1.65-4.07-2.38-4.76-0.73-0.69-3.12-1.52-5.32-1.85-3.01-0.46-6.1 0.14-12.5 2.4-5 1.77-12.52 3.47-18.25 4.11-5.36 0.61-12.45 1.1-15.75 1.1-4.13 0-7.87-0.78-12-2.5-4.93-2.06-7.64-2.5-15.25-2.5-8.88 0.01-9.63 0.19-18.75 4.5-5.98 2.83-10.89 4.49-13.25 4.5-2.3 0-8.87-2.15-17-5.55-8.16-3.42-15.94-5.95-20.25-6.6-4.98-0.75-9.1-0.73-14.25 0.05-3.99 0.6-9.61 1.98-12.5 3.06-2.89 1.08-8.06 3.78-11.5 6-3.44 2.22-6.81 4.05-7.5 4.07-0.69 0.01-2.38-1.16-3.75-2.6-1.38-1.44-3.74-3.25-5.25-4.03q-2.75-1.4-5-0.53c-1.24 0.48-2.75 1.49-3.36 2.25-0.61 0.76-1.42 2.73-1.8 4.38-0.44 1.95-0.06 4.66 1.11 7.75 1.6 4.22 1.64 4.92 0.3 6.34-1.09 1.16-2.53 1.43-5.25 1-2.15-0.34-5.56-2.08-8-4.09-2.34-1.93-5.71-4.18-7.5-5-2.48-1.15-4.08-1.26-6.75-0.5-2.46 0.7-4.47 2.39-6.75 5.68-1.79 2.58-4.04 5.5-5 6.5-0.96 1-2.31 1.84-3 1.86-0.69 0.02-2.64-2.79-4.34-6.25-1.7-3.46-4.52-7.53-6.25-9.04-1.74-1.51-5.07-3.25-7.41-3.85-2.34-0.61-6.27-0.82-8.75-0.48-2.48 0.35-6.86 1.97-9.75 3.61-2.89 1.63-9.41 6.41-14.5 10.61-5.09 4.2-11.22 9.27-13.62 11.25-2.4 1.99-5.66 5.86-7.24 8.61-1.58 2.75-2.87 5.9-2.88 7 0 1.1 0.89 3.35 1.98 5 1.09 1.65 2.55 3.76 3.25 4.69 1.05 1.41 0.93 2.04-0.74 3.82-1.1 1.17-4.25 3.38-7 4.91-2.75 1.54-6.46 4.43-8.25 6.43-3.05 3.43-3.25 4.1-3.25 11.15 0 4.12-0.34 7.7-0.75 7.96-0.41 0.25-3.11-1.1-6-3-3.05-2.01-6.51-3.46-8.25-3.46q-3 0.01-5.53 2.75c-1.55 1.68-2.53 3.91-2.52 5.75 0.01 1.8 1.77 5.79 4.42 10 2.43 3.85 4.69 8.46 5.02 10.25 0.36 1.92 1.73 4.06 3.36 5.24 1.51 1.09 3.31 2.44 4 3 0.69 0.56 1.25 3.03 1.25 5.51 0 2.67-0.61 5.11-1.5 6-0.82 0.83-3.86 1.78-6.75 2.12-2.89 0.34-8.18 1.52-11.75 2.63-5.39 1.66-7.48 3.01-12.25 7.88-4.95 5.06-6.13 5.79-8.5 5.29-1.51-0.32-9.27-3.07-17.25-6.12-7.98-3.05-21.93-9.11-31-13.47-9.07-4.36-20.1-10.01-24.5-12.54-4.4-2.54-14.85-9.15-23.22-14.7-8.37-5.55-14.97-10.32-14.66-10.59 0.3-0.28 3.92-0.5 8.05-0.5 6.74 0 7.73-0.25 9.72-2.5 1.26-1.41 2.53-4.57 2.92-7.25 0.38-2.61 1.03-4.96 1.44-5.21 0.41-0.26 3.34 1.09 6.5 3 4.72 2.84 6.6 3.42 10.47 3.21 3.95-0.21 4.96-0.69 6.25-2.96 1.32-2.34 1.36-3.69 0.28-9.75-0.69-3.87-2.45-10.53-3.91-14.79-1.47-4.26-3.38-8.83-4.25-10.14-0.88-1.31-2.94-3.32-4.59-4.46-1.65-1.14-5.76-2.99-9.13-4.11-3.37-1.12-6.26-2.49-6.42-3.04-0.17-0.55 1.24-2.06 3.12-3.35 3.08-2.1 4.17-2.28 17.93-1.15l2.02-3.25c1.8-2.89 1.95-4.25 1.34-12.25-0.65-8.72-0.6-9.05 1.73-10.76 1.81-1.32 4.34-1.75 10.16-1.75 4.26 0.01 8.76 0.39 10 0.86 1.24 0.47 2.53 1.71 2.88 2.75 0.35 1.05-0.45 5.05-1.76 8.9-1.32 3.85-2.39 8.69-2.38 10.75 0 2.06 1.14 5.89 2.51 8.5 1.38 2.61 2.49 6.1 2.47 7.75-0.02 1.81 0.81 3.79 2.1 5 1.48 1.38 3.42 1.97 6.29 1.9 2.44-0.05 7.21-1.51 11.64-3.56 4.12-1.91 10.65-5.54 14.5-8.07 3.85-2.52 10.82-7.86 15.5-11.85 4.68-4 12.51-11.13 17.41-15.84 4.91-4.72 11.1-10.83 13.77-13.58 2.67-2.75 5.52-6.46 6.33-8.25 0.82-1.79 1.49-3.92 1.49-4.75 0-0.83-1.35-2.85-3-4.5q-3-3-6-3c-1.65 0-5.14 0.5-7.75 1.1-4.62 1.07-4.83 1.02-7.75-2-1.74-1.8-4.47-3.35-6.5-3.7-2.65-0.45-5.81 0.29-13 3.08-5.23 2.03-12.2 4.53-15.5 5.57-3.3 1.03-10.05 2.81-15 3.96-6.08 1.41-9.32 1.75-10 1.07q-1-1.02 0.34-3.8c1.01-2.09 1.07-3.34 0.25-5.03-0.6-1.24-2.1-2.93-3.34-3.76-1.24-0.83-3.82-1.49-5.75-1.48-1.93 0.02-5.3 0.86-7.5 1.86-2.2 1.01-7.71 5.05-12.25 8.98-4.54 3.93-9.15 7.15-10.25 7.15-1.1 0-4.36-0.5-7.25-1.12-4.03-0.86-6.53-0.82-10.75 0.16-4.74 1.1-6.29 1.05-11.25-0.38-3.16-0.91-7.66-1.68-10-1.69-2.75-0.03-5.22 0.68-7 2-1.51 1.11-3.9 4.39-5.3 7.28-1.41 2.89-3.32 5.82-4.25 6.52-0.94 0.69-3.61 1.26-5.95 1.25-3.19-0.02-4.88-0.65-9.25-5.02l2.27-4.25c1.25-2.34 5.25-8.08 8.88-12.75 3.63-4.67 12.85-14.98 20.48-22.9 7.63-7.93 19.05-18.87 25.37-24.31 6.32-5.45 19.37-15.2 29-21.67 9.62-6.46 23.49-14.78 30.8-18.48 9.89-5 14-6.6 16-6.21 1.49 0.29 3.78-0.1 5.1-0.86 2.24-1.3 2.69-1.13 6.75 2.52zm364.1 139.96c0.69-0.03 2.49 0.56 4 1.32 1.51 0.75 4.69 3.56 7.07 6.25 2.38 2.68 5.53 6.9 7 9.38 2.55 4.28 2.68 5.15 2.68 31.37l-7.32 6.06c-5.92 4.91-7.48 5.78-8.18 4.57-0.47-0.83-1.4-3.75-2.07-6.5-1.05-4.35-0.93-6.27 3.07-24.5l-2.25-4.2c-1.7-3.17-3.85-5.11-8.75-7.86-3.58-2.02-7.17-4.84-8-6.27-1.33-2.33-1.33-2.78 0-4.08 0.83-0.8 3.75-2.37 6.5-3.47 2.75-1.11 5.56-2.04 6.25-2.07zm-14.89 67.92c0.35-0.02 1.54 0.92 4.64 4.21l-2 1.43c-1.1 0.78-2.56 1.42-3.25 1.41-0.69-0.01-1.48-0.92-1.75-2.02-0.28-1.1 0-2.68 0.61-3.5 0.61-0.83 1.4-1.51 1.75-1.53zm-165.44 36.03c1.14-0.01 3.88 1.2 6.08 2.68 2.2 1.48 5.8 4.4 8 6.49 2.2 2.09 5.8 4.77 8 5.95 2.89 1.56 4.97 2 7.5 1.57 2.38-0.4 5.67-2.53 10.25-6.64 3.71-3.33 7.65-6.05 8.75-6.05 1.82 0 2.03 0.76 2.29 8.25 0.16 4.54 0.62 8.92 1.03 9.75 0.61 1.22-1.6 2.09-12.03 4.69-7.04 1.76-14.59 3.49-20.79 4.48v-5.67c0-4.79-0.39-6.01-2.5-7.87-1.38-1.21-5.76-3.42-9.75-4.92-4.24-1.58-7.88-3.64-8.76-4.96-0.83-1.24-1.58-3.19-1.66-4.33-0.09-1.15 0.21-2.39 0.67-2.75 0.46-0.37 1.77-0.67 2.92-0.67zm-32.92 23c0.83 0 2.74 0.63 4.25 1.39 1.51 0.77 4.21 3.47 6 6 1.79 2.54 3.25 5.06 3.25 5.61 0 0.55-1.91 1.01-4.25 1.03-2.85 0.02-4.77-0.55-5.83-1.75-0.87-0.98-2.33-3.81-3.24-6.28-0.92-2.48-1.67-4.84-1.67-5.25-0.01-0.41 0.66-0.75 1.49-0.75zm-256.17-120.75c3.39 0.51 6.62 1.32 7.17 1.81 0.63 0.55-0.65 2.62-3.52 5.66-2.48 2.63-6.76 7.61-9.5 11.08-2.74 3.46-5.88 6.55-6.98 6.87-1.38 0.39-2.7-0.24-4.25-2.05-1.24-1.44-2.53-4.31-2.87-6.37-0.34-2.06-0.14-5.33 0.45-7.25 0.59-1.93 2.1-4.51 3.37-5.75 1.26-1.23 4.02-2.85 6.13-3.58 2.85-0.99 5.42-1.1 10-0.42z"></path>
	</g><g id="Carpeta 1">
		<path id="Forma 1" fill-rule="evenodd" class="s2" d="m331 210c-2.21 0-4-1.79-4-4 0-2.21 1.79-4 4-4 2.21 0 4 1.79 4 4 0 2.21-1.79 4-4 4z"></path>
		<path id="Forma 1 copy" fill-rule="evenodd" class="s2" d="m247 299c-2.21 0-4-1.79-4-4 0-2.21 1.79-4 4-4 2.21 0 4 1.79 4 4 0 2.21-1.79 4-4 4z"></path>
		<path id="Forma 1 copy 2" fill-rule="evenodd" class="s2" d="m327 404c-2.21 0-4-1.79-4-4 0-2.21 1.79-4 4-4 2.21 0 4 1.79 4 4 0 2.21-1.79 4-4 4z"></path>
		<path id="Forma 1 copy 3" fill-rule="evenodd" class="s2" d="m302 268c-2.21 0-4-1.79-4-4 0-2.21 1.79-4 4-4 2.21 0 4 1.79 4 4 0 2.21-1.79 4-4 4z"></path>
		<path id="Forma 1 copy 4" fill-rule="evenodd" class="s2" d="m225 457c-2.21 0-4-1.79-4-4 0-2.21 1.79-4 4-4 2.21 0 4 1.79 4 4 0 2.21-1.79 4-4 4z"></path>
		<path id="Forma 1 copy 5" fill-rule="evenodd" class="s2" d="m330 315c-2.21 0-4-1.79-4-4 0-2.21 1.79-4 4-4 2.21 0 4 1.79 4 4 0 2.21-1.79 4-4 4z"></path>
		<path id="Forma 1 copy 6" fill-rule="evenodd" class="s2" d="m185 386c-2.21 0-4-1.79-4-4 0-2.21 1.79-4 4-4 2.21 0 4 1.79 4 4 0 2.21-1.79 4-4 4z"></path>
		<path id="Forma 1 copy 7" fill-rule="evenodd" class="s2" d="m261 368c-2.21 0-4-1.79-4-4 0-2.21 1.79-4 4-4 2.21 0 4 1.79 4 4 0 2.21-1.79 4-4 4z"></path>
		<path id="Forma 1 copy 8" fill-rule="evenodd" class="s2" d="m288 415c-2.21 0-4-1.79-4-4 0-2.21 1.79-4 4-4 2.21 0 4 1.79 4 4 0 2.21-1.79 4-4 4z"></path>
		<path id="Forma 1 copy 9" fill-rule="evenodd" class="s2" d="m204 504c-2.21 0-4-1.79-4-4 0-2.21 1.79-4 4-4 2.21 0 4 1.79 4 4 0 2.21-1.79 4-4 4z"></path>
		<path id="Forma 1 copy 10" fill-rule="evenodd" class="s2" d="m284 609c-2.21 0-4-1.79-4-4 0-2.21 1.79-4 4-4 2.21 0 4 1.79 4 4 0 2.21-1.79 4-4 4z"></path>
		<path id="Forma 1 copy 11" fill-rule="evenodd" class="s2" d="m259 473c-2.21 0-4-1.79-4-4 0-2.21 1.79-4 4-4 2.21 0 4 1.79 4 4 0 2.21-1.79 4-4 4z"></path>
		<path id="Forma 1 copy 12" fill-rule="evenodd" class="s2" d="m182 662c-2.21 0-4-1.79-4-4 0-2.21 1.79-4 4-4 2.21 0 4 1.79 4 4 0 2.21-1.79 4-4 4z"></path>
		<path id="Forma 1 copy 13" fill-rule="evenodd" class="s2" d="m287 520c-2.21 0-4-1.79-4-4 0-2.21 1.79-4 4-4 2.21 0 4 1.79 4 4 0 2.21-1.79 4-4 4z"></path>
		<path id="Forma 1 copy 14" fill-rule="evenodd" class="s2" d="m142 591c-2.21 0-4-1.79-4-4 0-2.21 1.79-4 4-4 2.21 0 4 1.79 4 4 0 2.21-1.79 4-4 4z"></path>
		<path id="Forma 1 copy 15" fill-rule="evenodd" class="s2" d="m218 573c-2.21 0-4-1.79-4-4 0-2.21 1.79-4 4-4 2.21 0 4 1.79 4 4 0 2.21-1.79 4-4 4z"></path>
		<path id="Forma 1 copy 16" fill-rule="evenodd" class="s2" d="m421 464c-2.21 0-4-1.79-4-4 0-2.21 1.79-4 4-4 2.21 0 4 1.79 4 4 0 2.21-1.79 4-4 4z"></path>
		<path id="Forma 1 copy 17" fill-rule="evenodd" class="s2" d="m337 553c-2.21 0-4-1.79-4-4 0-2.21 1.79-4 4-4 2.21 0 4 1.79 4 4 0 2.21-1.79 4-4 4z"></path>
		<path id="Forma 1 copy 19" fill-rule="evenodd" class="s2" d="m392 522c-2.21 0-4-1.79-4-4 0-2.21 1.79-4 4-4 2.21 0 4 1.79 4 4 0 2.21-1.79 4-4 4z"></path>
		<path id="Forma 1 copy 21" fill-rule="evenodd" class="s2" d="m420 569c-2.21 0-4-1.79-4-4 0-2.21 1.79-4 4-4 2.21 0 4 1.79 4 4 0 2.21-1.79 4-4 4z"></path>
		<path id="Forma 1 copy 22" fill-rule="evenodd" class="s2" d="m257 656c-2.21 0-4-1.79-4-4 0-2.21 1.79-4 4-4 2.21 0 4 1.79 4 4 0 2.21-1.79 4-4 4z"></path>
		<path id="Forma 1 copy 24" fill-rule="evenodd" class="s2" d="m492 199c-2.21 0-4-1.79-4-4 0-2.21 1.79-4 4-4 2.21 0 4 1.79 4 4 0 2.21-1.79 4-4 4z"></path>
		<path id="Forma 1 copy 25" fill-rule="evenodd" class="s2" d="m408 288c-2.21 0-4-1.79-4-4 0-2.21 1.79-4 4-4 2.21 0 4 1.79 4 4 0 2.21-1.79 4-4 4z"></path>
		<path id="Forma 1 copy 27" fill-rule="evenodd" class="s2" d="m463 257c-2.21 0-4-1.79-4-4 0-2.21 1.79-4 4-4 2.21 0 4 1.79 4 4 0 2.21-1.79 4-4 4z"></path>
		<path id="Forma 1 copy 28" fill-rule="evenodd" class="s2" d="m386 446c-2.21 0-4-1.79-4-4 0-2.21 1.79-4 4-4 2.21 0 4 1.79 4 4 0 2.21-1.79 4-4 4z"></path>
		<path id="Forma 1 copy 30" fill-rule="evenodd" class="s2" d="m346 375c-2.21 0-4-1.79-4-4 0-2.21 1.79-4 4-4 2.21 0 4 1.79 4 4 0 2.21-1.79 4-4 4z"></path>
		<path id="Forma 1 copy 31" fill-rule="evenodd" class="s2" d="m422 357c-2.21 0-4-1.79-4-4 0-2.21 1.79-4 4-4 2.21 0 4 1.79 4 4 0 2.21-1.79 4-4 4z"></path>
		<path id="Forma 1 copy 33" fill-rule="evenodd" class="s2" d="m403 194c-2.21 0-4-1.79-4-4 0-2.21 1.79-4 4-4 2.21 0 4 1.79 4 4 0 2.21-1.79 4-4 4z"></path>
		<path id="Forma 1 copy 34" fill-rule="evenodd" class="s2" d="m483 299c-2.21 0-4-1.79-4-4 0-2.21 1.79-4 4-4 2.21 0 4 1.79 4 4 0 2.21-1.79 4-4 4z"></path>
		<path id="Forma 1 copy 35" fill-rule="evenodd" class="s2" d="m458 163c-2.21 0-4-1.79-4-4 0-2.21 1.79-4 4-4 2.21 0 4 1.79 4 4 0 2.21-1.79 4-4 4z"></path>
		<path id="Forma 1 copy 36" fill-rule="evenodd" class="s2" d="m381 352c-2.21 0-4-1.79-4-4 0-2.21 1.79-4 4-4 2.21 0 4 1.79 4 4 0 2.21-1.79 4-4 4z"></path>
		<path id="Forma 1 copy 37" fill-rule="evenodd" class="s2" d="m486 210c-2.21 0-4-1.79-4-4 0-2.21 1.79-4 4-4 2.21 0 4 1.79 4 4 0 2.21-1.79 4-4 4z"></path>
		<path id="Forma 1 copy 38" fill-rule="evenodd" class="s2" d="m341 281c-2.21 0-4-1.79-4-4 0-2.21 1.79-4 4-4 2.21 0 4 1.79 4 4 0 2.21-1.79 4-4 4z"></path>
		<path id="Forma 1 copy 39" fill-rule="evenodd" class="s2" d="m417 263c-2.21 0-4-1.79-4-4 0-2.21 1.79-4 4-4 2.21 0 4 1.79 4 4 0 2.21-1.79 4-4 4z"></path>
		<path id="Forma 1 copy 41" fill-rule="evenodd" class="s2" d="m564 183c-2.21 0-4-1.79-4-4 0-2.21 1.79-4 4-4 2.21 0 4 1.79 4 4 0 2.21-1.79 4-4 4z"></path>
		<path id="Forma 1 copy 42" fill-rule="evenodd" class="s2" d="m644 288c-2.21 0-4-1.79-4-4 0-2.21 1.79-4 4-4 2.21 0 4 1.79 4 4 0 2.21-1.79 4-4 4z"></path>
		<path id="Forma 1 copy 43" fill-rule="evenodd" class="s2" d="m619 152c-2.21 0-4-1.79-4-4 0-2.21 1.79-4 4-4 2.21 0 4 1.79 4 4 0 2.21-1.79 4-4 4z"></path>
		<path id="Forma 1 copy 45" fill-rule="evenodd" class="s2" d="m647 199c-2.21 0-4-1.79-4-4 0-2.21 1.79-4 4-4 2.21 0 4 1.79 4 4 0 2.21-1.79 4-4 4z"></path>
		<path id="Forma 1 copy 46" fill-rule="evenodd" class="s2" d="m502 270c-2.21 0-4-1.79-4-4 0-2.21 1.79-4 4-4 2.21 0 4 1.79 4 4 0 2.21-1.79 4-4 4z"></path>
		<path id="Forma 1 copy 47" fill-rule="evenodd" class="s2" d="m578 252c-2.21 0-4-1.79-4-4 0-2.21 1.79-4 4-4 2.21 0 4 1.79 4 4 0 2.21-1.79 4-4 4z"></path>
		<path id="Forma 1 copy 48" fill-rule="evenodd" class="s2" d="m676 208c-2.21 0-4-1.79-4-4 0-2.21 1.79-4 4-4 2.21 0 4 1.79 4 4 0 2.21-1.79 4-4 4z"></path>
		<path id="Forma 1 copy 49" fill-rule="evenodd" class="s2" d="m592 297c-2.21 0-4-1.79-4-4 0-2.21 1.79-4 4-4 2.21 0 4 1.79 4 4 0 2.21-1.79 4-4 4z"></path>
		<path id="Forma 1 copy 52" fill-rule="evenodd" class="s2" d="m570 455c-2.21 0-4-1.79-4-4 0-2.21 1.79-4 4-4 2.21 0 4 1.79 4 4 0 2.21-1.79 4-4 4z"></path>
		<path id="Forma 1 copy 53" fill-rule="evenodd" class="s2" d="m675 313c-2.21 0-4-1.79-4-4 0-2.21 1.79-4 4-4 2.21 0 4 1.79 4 4 0 2.21-1.79 4-4 4z"></path>
		<path id="Forma 1 copy 55" fill-rule="evenodd" class="s2" d="m606 366c-2.21 0-4-1.79-4-4 0-2.21 1.79-4 4-4 2.21 0 4 1.79 4 4 0 2.21-1.79 4-4 4z"></path>
		<path id="Forma 1 copy 57" fill-rule="evenodd" class="s2" d="m693 255c-2.21 0-4-1.79-4-4 0-2.21 1.79-4 4-4 2.21 0 4 1.79 4 4 0 2.21-1.79 4-4 4z"></path>
		<path id="Forma 1 copy 58" fill-rule="evenodd" class="s2" d="m773 360c-2.21 0-4-1.79-4-4 0-2.21 1.79-4 4-4 2.21 0 4 1.79 4 4 0 2.21-1.79 4-4 4z"></path>
		<path id="Forma 1 copy 59" fill-rule="evenodd" class="s2" d="m748 224c-2.21 0-4-1.79-4-4 0-2.21 1.79-4 4-4 2.21 0 4 1.79 4 4 0 2.21-1.79 4-4 4z"></path>
		<path id="Forma 1 copy 60" fill-rule="evenodd" class="s2" d="m671 413c-2.21 0-4-1.79-4-4 0-2.21 1.79-4 4-4 2.21 0 4 1.79 4 4 0 2.21-1.79 4-4 4z"></path>
		<path id="Forma 1 copy 61" fill-rule="evenodd" class="s2" d="m776 271c-2.21 0-4-1.79-4-4 0-2.21 1.79-4 4-4 2.21 0 4 1.79 4 4 0 2.21-1.79 4-4 4z"></path>
		<path id="Forma 1 copy 62" fill-rule="evenodd" class="s2" d="m631 342c-2.21 0-4-1.79-4-4 0-2.21 1.79-4 4-4 2.21 0 4 1.79 4 4 0 2.21-1.79 4-4 4z"></path>
		<path id="Forma 1 copy 63" fill-rule="evenodd" class="s2" d="m707 324c-2.21 0-4-1.79-4-4 0-2.21 1.79-4 4-4 2.21 0 4 1.79 4 4 0 2.21-1.79 4-4 4z"></path>
		<path id="Forma 1 copy 64" fill-rule="evenodd" class="s2" d="m830 368c-2.21 0-4-1.79-4-4 0-2.21 1.79-4 4-4 2.21 0 4 1.79 4 4 0 2.21-1.79 4-4 4z"></path>
		<path id="Forma 1 copy 65" fill-rule="evenodd" class="s2" d="m746 457c-2.21 0-4-1.79-4-4 0-2.21 1.79-4 4-4 2.21 0 4 1.79 4 4 0 2.21-1.79 4-4 4z"></path>
		<path id="Forma 1 copy 66" fill-rule="evenodd" class="s2" d="m826 562c-2.21 0-4-1.79-4-4 0-2.21 1.79-4 4-4 2.21 0 4 1.79 4 4 0 2.21-1.79 4-4 4z"></path>
		<path id="Forma 1 copy 67" fill-rule="evenodd" class="s2" d="m801 426c-2.21 0-4-1.79-4-4 0-2.21 1.79-4 4-4 2.21 0 4 1.79 4 4 0 2.21-1.79 4-4 4z"></path>
		<path id="Forma 1 copy 68" fill-rule="evenodd" class="s2" d="m724 615c-2.21 0-4-1.79-4-4 0-2.21 1.79-4 4-4 2.21 0 4 1.79 4 4 0 2.21-1.79 4-4 4z"></path>
		<path id="Forma 1 copy 69" fill-rule="evenodd" class="s2" d="m829 473c-2.21 0-4-1.79-4-4 0-2.21 1.79-4 4-4 2.21 0 4 1.79 4 4 0 2.21-1.79 4-4 4z"></path>
		<path id="Forma 1 copy 70" fill-rule="evenodd" class="s2" d="m684 544c-2.21 0-4-1.79-4-4 0-2.21 1.79-4 4-4 2.21 0 4 1.79 4 4 0 2.21-1.79 4-4 4z"></path>
		<path id="Forma 1 copy 71" fill-rule="evenodd" class="s2" d="m760 526c-2.21 0-4-1.79-4-4 0-2.21 1.79-4 4-4 2.21 0 4 1.79 4 4 0 2.21-1.79 4-4 4z"></path>
		<path id="Forma 1 copy 72" fill-rule="evenodd" class="s2" d="m696 434c-2.21 0-4-1.79-4-4 0-2.21 1.79-4 4-4 2.21 0 4 1.79 4 4 0 2.21-1.79 4-4 4z"></path>
		<path id="Forma 1 copy 73" fill-rule="evenodd" class="s2" d="m612 523c-2.21 0-4-1.79-4-4 0-2.21 1.79-4 4-4 2.21 0 4 1.79 4 4 0 2.21-1.79 4-4 4z"></path>
		<path id="Forma 1 copy 74" fill-rule="evenodd" class="s2" d="m693 599c-2.21 0-4-1.79-4-4 0-2.21 1.79-4 4-4 2.21 0 4 1.79 4 4 0 2.21-1.79 4-4 4z"></path>
		<path id="Forma 1 copy 75" fill-rule="evenodd" class="s2" d="m667 492c-2.21 0-4-1.79-4-4 0-2.21 1.79-4 4-4 2.21 0 4 1.79 4 4 0 2.21-1.79 4-4 4z"></path>
		<path id="Forma 1 copy 78" fill-rule="evenodd" class="s2" d="m550 610c-2.21 0-4-1.79-4-4 0-2.21 1.79-4 4-4 2.21 0 4 1.79 4 4 0 2.21-1.79 4-4 4z"></path>
		<path id="Forma 1 copy 79" fill-rule="evenodd" class="s2" d="m626 592c-2.21 0-4-1.79-4-4 0-2.21 1.79-4 4-4 2.21 0 4 1.79 4 4 0 2.21-1.79 4-4 4z"></path>
		<path id="Forma 1 copy 80" fill-rule="evenodd" class="s2" d="m881 587c-2.21 0-4-1.79-4-4 0-2.21 1.79-4 4-4 2.21 0 4 1.79 4 4 0 2.21-1.79 4-4 4z"></path>
		<path id="Forma 1 copy 81" fill-rule="evenodd" class="s2" d="m797 676c-2.21 0-4-1.79-4-4 0-2.21 1.79-4 4-4 2.21 0 4 1.79 4 4 0 2.21-1.79 4-4 4z"></path>
		<path id="Forma 1 copy 83" fill-rule="evenodd" class="s2" d="m852 645c-2.21 0-4-1.79-4-4 0-2.21 1.79-4 4-4 2.21 0 4 1.79 4 4 0 2.21-1.79 4-4 4z"></path>
		<path id="Forma 1 copy 86" fill-rule="evenodd" class="s2" d="m735 763c-2.21 0-4-1.79-4-4 0-2.21 1.79-4 4-4 2.21 0 4 1.79 4 4 0 2.21-1.79 4-4 4z"></path>
		<path id="Forma 1 copy 87" fill-rule="evenodd" class="s2" d="m811 745c-2.21 0-4-1.79-4-4 0-2.21 1.79-4 4-4 2.21 0 4 1.79 4 4 0 2.21-1.79 4-4 4z"></path>
	</g><path id="ASSOCIACIÓ ASTRONÒMICA DE VILADE" fill-rule="evenodd" class="s2" d="m113.14 638.04l1.89 6.94-54.53-5.56-1.92-7.04 43.9-33.62 2.02 7.45-13.39 9.82 5.6 20.65zm-38.21-3.3l15.95 1.49-4.54-16.74-12.28 8.87q-5.59 4.05-9.29 6.29 5.01-0.35 10.16 0.09zm11.34-36.66l-1.51-6.23q3.73-1.03 5.93-3.02 2.16-2.02 3.16-5.71 0.96-3.67 0.31-7.98-0.58-3.84-2.17-6.6-1.58-2.76-3.76-3.87-2.22-1.15-4.57-0.79-2.38 0.36-3.93 2-1.59 1.66-2.31 5.01-0.49 2.16-1.09 9.38-0.63 7.23-1.69 10.25-1.35 3.91-3.88 6.13-2.56 2.19-6.04 2.72-3.84 0.58-7.48-1.09-3.67-1.67-6.03-5.59-2.36-3.91-3.14-9.02-0.85-5.62 0.33-10.18 1.14-4.58 4.31-7.43 3.17-2.85 7.6-3.69l1.45 6.34q-4.71 1.25-6.71 4.62-2 3.34-1.12 9.17 0.92 6.08 3.59 8.53 2.63 2.43 5.77 1.95 2.72-0.41 4.19-2.65 1.46-2.19 2.09-10.62 0.59-8.46 1.51-11.7 1.37-4.73 4.19-7.31 2.79-2.58 6.86-3.19 4.04-0.62 7.98 1.15 3.9 1.78 6.56 5.82 2.62 4.02 3.44 9.43 1.04 6.87-0.25 11.83-1.3 4.93-4.9 8.2-3.64 3.23-8.69 4.14zm-6.82-49.17l-0.79-6.36q3.82-0.6 6.24-2.33 2.38-1.76 3.78-5.31 1.37-3.54 1.21-7.9-0.14-3.87-1.4-6.79-1.26-2.93-3.3-4.28-2.08-1.39-4.45-1.31-2.41 0.09-4.13 1.55-1.77 1.47-2.87 4.72-0.73 2.09-2.14 9.2-1.45 7.1-2.84 9.99-1.79 3.73-4.55 5.65-2.79 1.88-6.31 2.01-3.88 0.14-7.3-1.93-3.47-2.07-5.37-6.23-1.9-4.16-2.09-9.32-0.21-5.68 1.48-10.08 1.65-4.42 5.12-6.89 3.48-2.47 7.97-2.81l0.73 6.47q-4.83 0.7-7.2 3.83-2.36 3.09-2.14 8.98 0.22 6.14 2.59 8.88 2.34 2.71 5.51 2.59 2.76-0.1 4.46-2.15 1.71-2.02 3.29-10.32 1.54-8.34 2.83-11.46 1.89-4.54 4.98-6.78 3.07-2.25 7.18-2.4 4.08-0.15 7.8 2.06 3.67 2.2 5.86 6.52 2.15 4.29 2.35 9.76 0.26 6.94-1.59 11.73-1.85 4.75-5.8 7.58-3.98 2.8-9.11 3.13zm-9.99-50.64q-12.69-1.08-19.28-8.5-6.62-7.43-5.71-18.21 0.6-7.06 4.46-12.44 3.85-5.38 10.15-7.83 6.27-2.48 13.93-1.83 7.75 0.66 13.61 4.31 5.85 3.65 8.53 9.65 2.64 6.01 2.08 12.65-0.61 7.2-4.57 12.57-3.96 5.38-10.22 7.79-6.27 2.41-12.98 1.84zm0.7-6.95q9.21 0.79 14.95-3.7 5.71-4.53 6.34-12 0.65-7.62-4.29-12.98-4.94-5.39-14.78-6.23-6.22-0.52-11.03 1.21-4.84 1.69-7.72 5.54-2.92 3.82-3.34 8.86-0.61 7.16 3.89 12.76 4.46 5.57 15.98 6.54zm20.2-87.9l3.1-6.26q7.7 3.85 10.83 10.2 3.1 6.31 1.41 14.12-1.75 8.09-6.13 12.46-4.4 4.34-11.22 5.65-6.81 1.27-13.98-0.28-7.81-1.69-12.96-5.91-5.19-4.27-7-10.41-1.84-6.18-0.41-12.8 1.63-7.51 6.55-11.8 4.93-4.29 12.29-4.8l0.13 6.85q-5.84 0.56-9.04 3.33-3.21 2.77-4.3 7.78-1.24 5.77 0.68 10.25 1.93 4.46 6.26 7.04 4.3 2.57 9.25 3.64 6.38 1.38 11.55 0.57 5.15-0.85 8.35-4.26 3.2-3.41 4.19-7.99 1.21-5.56-1.16-10.1-2.38-4.55-8.39-7.28zm23.6-18.14l-1.99 6.47-48.9-15.07 1.99-6.47zm4.68-12.97l-2.68 6.68-40.2-37.26 2.71-6.77 55.29-0.43-2.87 7.16-16.6-0.22-7.95 19.86zm-28.54-25.63l11.84 10.8 6.45-16.11-15.14-0.31q-6.9-0.13-11.2-0.57 4.2 2.74 8.05 6.19zm47.32-57.56l4.74-5.12q6.3 5.86 7.5 12.84 1.18 6.94-2.65 13.95-3.97 7.26-9.4 10.21-5.45 2.91-12.36 2.24-6.89-0.71-13.33-4.22-7.01-3.83-10.76-9.35-3.76-5.55-3.76-11.96-0.02-6.45 3.23-12.39 3.68-6.74 9.62-9.46 5.94-2.72 13.15-1.13l-1.82 6.61q-5.75-1.12-9.61 0.63-3.86 1.75-6.32 6.25-2.83 5.18-2.26 10.02 0.59 4.82 4.02 8.52 3.39 3.69 7.83 6.12 5.73 3.13 10.92 3.82 5.18 0.64 9.22-1.73 4.04-2.37 6.28-6.47 2.73-4.99 1.74-10.03-0.99-5.03-5.98-9.35zm29.02-10.75l-3.75 5.65-42.62-28.31 3.74-5.64zm-14.7-24.07q-9.94-7.97-11.26-17.81-1.36-9.86 5.42-18.3 4.43-5.52 10.63-7.84 6.2-2.32 12.8-0.83 6.59 1.44 12.57 6.25 6.07 4.87 8.9 11.16 2.82 6.3 1.7 12.78-1.16 6.46-5.33 11.65-4.53 5.64-10.81 7.89-6.28 2.25-12.83 0.76-6.54-1.49-11.79-5.71zm4.45-5.38q7.21 5.79 14.48 5.27 7.26-0.57 11.96-6.42 4.78-5.97 3.67-13.17-1.09-7.23-8.79-13.41-4.88-3.91-9.83-5.16-4.96-1.29-9.5 0.3-4.55 1.54-7.72 5.49-4.5 5.6-3.89 12.76 0.61 7.11 9.62 14.34zm-11.49-32.8l-3.26 4.05-4.71-9.74 5.16-6.42zm75.57-3.08l-5.34 4.81-19.63-51.17 5.42-4.88 49.8 24.02-5.74 5.16-14.8-7.53-15.9 14.32zm-14.3-35.6l5.87 14.91 12.89-11.6-13.45-6.96q-6.13-3.17-9.79-5.46 2.56 4.31 4.48 9.11zm37.11-6.81l4.88-4.16q2.59 2.86 5.37 3.93 2.78 1.02 6.51 0.24 3.72-0.8 7.27-3.33 3.16-2.25 4.9-4.91 1.75-2.66 1.76-5.11 0.02-2.5-1.35-4.43-1.4-1.96-3.57-2.6-2.19-0.67-5.52 0.2-2.14 0.54-8.85 3.27-6.74 2.69-9.91 3.11-4.1 0.56-7.22-0.69-3.11-1.29-5.15-4.17-2.25-3.15-2.41-7.16-0.17-4.03 2.26-7.9 2.42-3.87 6.63-6.87 4.64-3.3 9.23-4.31 4.61-1.05 8.58 0.49 3.97 1.55 6.73 5.11l-5.01 4.17q-3.24-3.65-7.15-3.91-3.88-0.27-8.69 3.15-5 3.56-5.99 7.05-0.98 3.44 0.87 6.03 1.6 2.24 4.25 2.54 2.63 0.32 10.43-2.93 7.81-3.29 11.12-3.94 4.83-0.91 8.41 0.44 3.56 1.32 5.95 4.68 2.37 3.32 2.57 7.64 0.18 4.28-2.23 8.48-2.4 4.15-6.86 7.33-5.66 4.03-10.67 5.12-4.98 1.06-9.52-0.67-4.53-1.79-7.62-5.89zm69.02-24.76l-5.91 3.3-21.99-39.41-14.73 8.21-2.94-5.27 35.42-19.76 2.94 5.27-14.78 8.25zm27.34-13.89l-6.25 2.6-19.66-47.24 20.94-8.72q6.32-2.62 10.14-2.7 3.81-0.11 7.12 2.29 3.31 2.4 4.93 6.3 2.09 5.03 0.27 9.83-1.82 4.81-8.23 8.57 2.98 0.16 4.75 0.78 3.79 1.38 7.8 4.13l13.57 9.44-7.86 3.27-10.34-7.23q-4.51-3.11-7.22-4.63-2.71-1.52-4.51-1.83-1.76-0.33-3.36-0.08-1.15 0.22-3.57 1.22l-7.25 3.02zm-17.49-42.02l6.51 15.63 13.43-5.59q4.29-1.79 6.34-3.66 2.05-1.91 2.5-4.37 0.44-2.49-0.52-4.77-1.39-3.35-4.74-4.49-3.31-1.16-8.57 1.03zm49.86 1.9q-3.34-12.3 1.37-21.03 4.71-8.76 15.15-11.6 6.84-1.86 13.22-0.08 6.38 1.77 10.83 6.86 4.48 5.04 6.49 12.45 2.04 7.51 0.62 14.26-1.42 6.75-6.14 11.33-4.74 4.54-11.17 6.29-6.97 1.89-13.38 0.01-6.4-1.87-10.82-6.93-4.41-5.06-6.17-11.56zm6.76-1.73q2.42 8.92 8.61 12.78 6.2 3.81 13.45 1.84 7.37-2 10.71-8.48 3.38-6.48 0.79-16.02-1.64-6.02-4.91-9.95-3.25-3.96-7.86-5.35-4.58-1.43-9.46-0.1-6.94 1.88-10.66 8.03-3.7 6.1-0.67 17.25zm62.26 10.59l-6.43 0.87-6.93-50.69 6.88-0.94 32.07 36.16-5.44-39.8 6.44-0.88 6.92 50.7-6.88 0.94-32.07-36.2zm42.41-30.42q-0.11-12.74 6.66-19.99 6.78-7.29 17.6-7.38 7.09-0.07 12.8 3.27 5.72 3.34 8.74 9.38 3.06 6.01 3.13 13.69 0.06 7.79-3.02 13.96-3.09 6.17-8.82 9.39-5.73 3.2-12.4 3.25-7.22 0.07-12.94-3.37-5.72-3.44-8.71-9.46-2.98-6.01-3.04-12.74zm6.98 0.04q0.08 9.25 5.08 14.55 5.04 5.26 12.54 5.19 7.65-0.07 12.52-5.48 4.91-5.42 4.82-15.3-0.05-6.25-2.22-10.87-2.14-4.66-6.24-7.17-4.07-2.55-9.13-2.5-7.19 0.06-12.35 5.06-5.12 4.97-5.02 16.52zm16.48-39.41l4.79 9.73-5.06 0.04-8.14-9.7zm41.03 65.24l-6.47-0.84 6.54-50.75 10.1 1.3 7.39 37.48q1.02 5.24 1.46 7.83 1.22-2.66 3.74-7.79l16.7-33.74 9.04 1.16-6.54 50.75-6.47-0.83 5.47-42.48-20.22 40.58-6.06-0.78-9.11-45.1zm60.37 9.98l-6.61-1.5 11.31-49.9 6.61 1.49zm52.38-3.49l5.93 3.69q-4.56 7.3-11.19 9.8-6.58 2.47-14.19 0.04-7.88-2.52-11.82-7.3-3.89-4.79-4.54-11.71-0.61-6.9 1.62-13.88 2.43-7.61 7.13-12.34 4.75-4.75 11.03-5.97 6.34-1.23 12.79 0.83 7.31 2.34 11.11 7.65 3.79 5.32 3.6 12.7l-6.83-0.54q0-5.86-2.45-9.32-2.44-3.45-7.33-5.02-5.62-1.79-10.27-0.31-4.62 1.49-7.6 5.56-2.98 4.03-4.52 8.85-1.99 6.22-1.68 11.45 0.35 5.2 3.44 8.72 3.09 3.52 7.55 4.94 5.42 1.73 10.17-0.19 4.76-1.93 8.05-7.65zm9.97 23.15l-6.55-2.96 38.97-38.54 6.65 3.01-1.98 55.25-7.03-3.18 0.94-16.58-19.5-8.81zm26.86-27.39l-11.3 11.36 15.8 7.15 0.97-15.12q0.43-6.89 1.06-11.16-2.91 4.08-6.53 7.77zm43.65 65.19l-15.37-10.22 28.33-42.61 14.68 9.76q4.97 3.31 7.18 5.66 3.1 3.28 4.22 7.21 1.48 5.09 0.17 10.64-1.25 5.53-5.04 11.23-3.22 4.85-6.85 7.85-3.63 2.99-7.04 4.29-3.4 1.26-6.47 1.27-3.02 0-6.5-1.26-3.44-1.24-7.31-3.82zm15.26-44.05l-21.65 32.55 9.1 6.05q4.21 2.8 7.12 3.6 2.93 0.82 5.3 0.35 3.34-0.67 6.69-3.31 3.39-2.65 6.6-7.47 4.45-6.69 4.61-11.73 0.22-5.05-2.11-8.36-1.68-2.38-6.71-5.73zm41.15 87.92l-29.07-24.76 33.18-38.95 28.17 23.99-3.92 4.6-23.01-19.6-10.16 11.93 21.55 18.35-3.9 4.57-21.54-18.35-11.3 13.25 23.91 20.38zm35.16 37.33l-4.5-5.3 26.19-48.22 4.74 5.59-19.74 34.19q-2.36 4.11-4.64 7.47 3.96-1.81 8.17-3.32l37.28-13.51 4.47 5.27zm20.32 26.94l-3.95-5.5 41.56-29.86 3.95 5.5zm23.65 36.8l-16.75-27.24 43.59-26.8 3.54 5.77-38.44 23.64 13.2 21.46zm4.57 8.31l-3.11-6.49 54.64-4.38 3.15 6.58-37.1 40.99-3.33-6.96 11.4-12.07-9.24-19.3zm38.18-3.66l-15.96 1.41 7.49 15.65 10.48-10.94q4.76-4.99 8-7.86-4.86 1.25-10.01 1.74zm-12.55 63.14l-5.93-17.49 48.47-16.41 5.65 16.69q1.92 5.66 2.23 8.87 0.45 4.49-1.06 8.28-1.94 4.93-6.36 8.53-4.38 3.62-10.86 5.81-5.52 1.87-10.22 2.03-4.7 0.15-8.2-0.91-3.46-1.08-5.89-2.94-2.4-1.85-4.38-4.97-1.96-3.09-3.45-7.49zm38.99-25.55l-37.03 12.54 3.51 10.35q1.62 4.79 3.43 7.2 1.83 2.44 3.99 3.51 3.06 1.51 7.32 1.47 4.3-0.02 9.79-1.88 7.6-2.58 10.82-6.47 3.26-3.87 3.44-7.91 0.12-2.91-1.82-8.63zm-21.68 94.69l-7.85-37.37 50.08-10.52 7.6 36.21-5.91 1.24-6.21-29.58-15.33 3.22 5.81 27.7-5.87 1.24-5.82-27.71-17.04 3.58 6.45 30.75zm22.56 44.05l-1.11 6.9q-8.49-1.39-13.36-6.53-4.83-5.11-5.54-13.07-0.72-8.24 2.16-13.72 2.91-5.44 9.04-8.71 6.12-3.24 13.42-3.89 7.97-0.7 14.14 1.8 6.22 2.54 9.77 7.86 3.6 5.36 4.19 12.11 0.68 7.65-2.76 13.21-3.43 5.55-10.31 8.23l-2.15-6.5q5.41-2.27 7.65-5.86 2.24-3.6 1.79-8.71-0.52-5.88-3.69-9.59-3.16-3.68-8.07-4.86-4.87-1.18-9.91-0.74-6.5 0.58-11.2 2.88-4.66 2.34-6.71 6.55-2.05 4.21-1.63 8.87 0.5 5.67 4.11 9.31 3.62 3.64 10.17 4.46zm-17.77 18.45l0.21-7.19 50.57 21.14-0.21 7.29-51.76 19.44 0.22-7.71 15.67-5.51 0.62-21.39zm35.62 14.24l-14.83-6.06-0.51 17.34 14.32-4.92q6.53-2.26 10.71-3.32-4.89-1.12-9.69-3.04zm-38.16 38.14l0.95-6.42 50.62 7.49-1.02 6.87-43.67 20.7 39.74 5.88-0.95 6.43-50.62-7.49 1.02-6.88 43.71-20.7zm8.76 46.79l-1.15 6.31q-3.82-0.57-6.64 0.36-2.8 0.97-5.2 3.93-2.37 2.98-3.52 7.19-1.02 3.73-0.69 6.9 0.33 3.16 1.87 5.07 1.57 1.95 3.86 2.57 2.32 0.64 4.41-0.24 2.12-0.87 4.14-3.65 1.32-1.77 4.79-8.13 3.51-6.35 5.7-8.69 2.82-3.03 6.02-4.03 3.23-0.96 6.63-0.04 3.74 1.02 6.4 4.03 2.68 3.01 3.25 7.55 0.57 4.53-0.79 9.51-1.5 5.49-4.42 9.18-2.9 3.73-6.95 5.05-4.05 1.32-8.44 0.3l1.24-6.39q4.82 0.77 8.01-1.51 3.18-2.24 4.73-7.93 1.62-5.93 0.18-9.25-1.42-3.28-4.49-4.12-2.66-0.73-4.9 0.72-2.23 1.42-6.22 8.87-3.96 7.49-6.12 10.09-3.16 3.77-6.79 4.98-3.59 1.23-7.56 0.14-3.94-1.07-6.83-4.28-2.85-3.21-3.64-7.98-0.77-4.74 0.67-10.02 1.83-6.7 5.02-10.71 3.19-3.98 7.8-5.51 4.64-1.48 9.63-0.27z"></path><path id="Path 0" fill-rule="evenodd" class="s0" d="m514.51 133c5.91-0.02 8.42 0.21 8.99 0.82 0.49 0.53 0.85 3.82 1.17 17.12l8.81 0.8c4.84 0.43 8.99 0.59 9.21 0.33 0.23-0.25 0.91-3.53 1.51-7.3 0.6-3.77 1.22-7.36 1.38-7.99 0.22-0.86 0.97-1.14 3.06-1.15 1.52 0 5.41 0.45 8.64 1.01 3.23 0.56 6.09 1.23 6.35 1.48 0.27 0.25 0.05 3.54-0.47 7.3-0.53 3.77-0.97 7.51-0.97 8.32-0.01 1.2 0.43 1.53 2.43 1.83 1.34 0.2 4.94 1.11 7.99 2.04 3.05 0.92 6.35 1.93 7.34 2.24 1.76 0.56 1.84 0.46 5.54-6.93 2.06-4.12 4.12-7.64 4.56-7.82 0.45-0.18 2.8 0.58 5.22 1.69 2.42 1.11 5.37 2.8 6.55 3.75 1.19 0.95 2.14 2.1 2.12 2.55-0.01 0.44-1.18 3.23-2.58 6.19-1.41 2.96-3.71 8.17-5.12 11.58-1.41 3.41-3.51 8.69-4.68 11.74-1.16 3.05-2.99 7.74-4.05 10.43-1.07 2.69-2.29 5.11-2.71 5.37-0.43 0.27-33.06 0.48-72.52 0.48-39.46 0-72.11-0.21-72.57-0.48-0.45-0.26-4.19-10.45-8.3-22.65-4.11-12.2-7.48-22.69-7.49-23.32-0.01-0.72 1.59-2.08 4.39-3.72 2.42-1.42 5.5-3.03 6.85-3.59 1.96-0.8 2.61-0.84 3.27-0.19 0.45 0.45 1.77 3.24 2.93 6.2 1.16 2.96 2.12 5.6 2.13 5.87 0.01 0.27 0.52 1.17 1.14 2.01 1.07 1.44 1.24 1.47 3.41 0.57 1.25-0.52 5.36-1.71 9.13-2.65 3.77-0.94 7.43-1.7 8.15-1.71 1.22 0 1.27-0.27 0.81-4.08-0.28-2.25-0.87-6.05-1.31-8.46-0.45-2.43-0.55-4.6-0.24-4.89 0.31-0.29 2.66-0.87 5.22-1.3 2.56-0.43 6.49-0.8 8.73-0.82 2.24-0.02 4.21 0.19 4.38 0.46 0.17 0.27 0.83 3.92 2.63 15.73l8.15-0.33c4.49-0.17 8.74-0.43 9.46-0.56 0.92-0.18 1.45-0.98 1.79-2.74 0.26-1.36 0.43-5.15 0.38-8.41-0.06-3.25 0.14-6.12 0.44-6.35 0.3-0.24 4.23-0.45 8.75-0.47zm-4.23 38.21c-0.25 1.42-0.27 3.39-0.04 4.38 0.39 1.69 0.62 1.79 4 1.79h3.58c0-8.48-0.18-9.22-1.3-9.78-0.72-0.36-1.83-0.66-2.46-0.66-0.64 0-1.65 0.38-2.24 0.84-0.6 0.46-1.29 2-1.54 3.43zm-31.71 3.78l0.12 4.35c4.3-0.63 5.77-0.92 6.03-1.06 0.27-0.14 0.5-2.08 0.5-4.32 0.01-2.44-0.32-4.41-0.81-4.91-0.45-0.45-1.44-0.82-2.2-0.81-0.75 0-1.91 0.55-2.56 1.2-0.95 0.95-1.17 2.09-1.08 5.55zm64.2-0.41l0.16 3.72c4.05 0.83 5.59 0.91 6.04 0.73 0.48-0.21 0.81-1.55 0.81-3.28 0-1.61-0.44-3.96-0.98-5.22-0.8-1.88-1.32-2.28-2.91-2.28q-1.94 0.01-2.61 1.3c-0.37 0.72-0.6 2.98-0.51 5.03zm-92.89 5.62l0.12 4.35c3.28-0.61 4.46-0.97 4.74-1.21 0.27-0.23 0.42-2.47 0.32-4.98-0.15-4.05-0.33-4.59-1.52-4.76-0.73-0.1-1.89 0.36-2.56 1.03-0.98 0.98-1.2 2.09-1.1 5.57zm121.34-1.07c0.01 1.73 0.41 3.49 0.87 3.93 0.46 0.43 1.81 1.01 2.98 1.3l2.13 0.52c-0.01-6.92-0.38-9.02-1-9.95-0.54-0.8-1.56-1.46-2.27-1.46-0.71 0-1.61 0.56-2.01 1.26-0.4 0.69-0.72 2.67-0.7 4.4zm-59.27 51.72c0.18-0.01 26.74 26.41 59.03 58.7 32.28 32.3 58.79 59.23 58.91 59.85 0.15 0.78-18.32 19.65-58.37 59.67-32.22 32.2-58.88 58.54-59.24 58.55-0.36 0-27.07-26.42-59.35-58.71-32.28-32.3-58.8-59.08-58.93-59.53-0.13-0.44 26.29-27.29 58.7-59.66 32.41-32.37 59.07-58.87 59.25-58.87zm-28.37 45.46l3.92 4.94c-3.26 2.65-4.23 3.71-4.25 4.07-0.02 0.36 0.56 1.16 1.29 1.79 1.27 1.09 1.41 1.08 3.12-0.18 0.99-0.73 2.16-1.32 2.61-1.31 0.45 0.01 1.83 1.42 3.07 3.12 1.24 1.71 2.27 3.61 2.28 4.24 0.02 0.63-1.28 2.24-2.88 3.59-1.6 1.34-2.91 2.74-2.91 3.1-0.01 0.36 1.11 1.97 2.48 3.58l2.49 2.94c5.94-4.04 7.35-4.63 8.02-4.25 0.54 0.3 1.5 1.45 2.12 2.56l1.14 2.01c-3.28 3.37-4.82 4.66-5.54 5.05-1.1 0.59-1.19 0.94-0.58 2.23 0.4 0.84 1.5 2.48 2.45 3.65 0.94 1.16 2.01 2.12 2.37 2.12 0.36 0 1.83-1.03 3.26-2.28 1.44-1.26 3.2-2.29 3.91-2.29 0.72 0 1.51 0.37 1.75 0.82 0.25 0.45 0.94 3.16 1.55 6.03 0.61 2.87 1.76 6.54 2.55 8.15 1.17 2.41 1.27 3.07 0.56 3.67-0.61 0.52-3.16 0.58-8.69 0.21-4.58-0.3-9.99-0.25-13.04 0.11-2.87 0.35-6.76 1.21-8.64 1.91-1.89 0.7-4.53 1.97-5.87 2.81-1.35 0.85-3.5 2.68-4.77 4.08-1.28 1.4-2.99 4.01-3.79 5.8-0.8 1.8-1.79 5.32-2.19 7.83-0.56 3.44-0.55 5.65 0.03 8.97 0.42 2.42 1.41 5.5 2.2 6.84 0.78 1.35 2.21 3.48 3.16 4.73 0.96 1.26 2.12 3.46 2.58 4.89 0.56 1.79 0.69 4.52 0.41 8.65-0.22 3.31-0.19 6.14 0.08 6.28 0.27 0.14 2.55 0.36 5.06 0.49l4.56 0.24c-0.08-4.12-1.15-7.57-2.57-10.76-1.36-3.05-3.03-7.16-3.71-9.14-0.68-1.97-1.23-4.54-1.23-5.7 0.01-1.89 0.31-2.23 2.78-3.16 1.53-0.57 3.95-1.86 5.39-2.86 1.43-1 2.93-1.63 3.32-1.41 0.4 0.23 1.23 2.03 1.86 4 0.63 1.98 2.55 5.94 4.26 8.81 1.72 2.87 3.7 6.39 4.41 7.82 0.71 1.44 1.46 3.35 1.66 4.24 0.21 0.9 0.99 2.44 1.73 3.43 1.24 1.66 1.69 1.79 5.91 1.79 3.9 0 4.57-0.16 4.58-1.14 0.01-0.63-0.84-2.32-1.88-3.75-1.05-1.43-4.14-4.81-6.87-7.5-4.81-4.74-4.97-4.99-4.97-7.99 0.01-1.73 0.55-4.17 1.24-5.54 0.68-1.35 1.78-2.96 2.45-3.58 0.83-0.79 2.83-1.27 6.43-1.58 2.87-0.23 6.22-0.46 7.45-0.49l2.24-0.06c3.19 9.1 5.77 15.11 7.79 19.24 3.3 6.73 3.68 7.94 3.71 11.74 0.01 2.33 0.3 4.68 0.64 5.22 0.45 0.7 1.7 0.96 4.4 0.91 2.07-0.03 4.43-0.4 5.24-0.81 0.8-0.42 1.46-1.2 1.46-1.73 0-0.54-1.36-2.96-3.02-5.38-1.66-2.43-3.82-6.02-4.81-7.99-0.99-1.98-2.26-5.21-2.82-7.18-0.57-1.97-1.23-5.2-1.47-7.17-0.24-1.97-0.25-4.62-0.02-5.87 0.36-1.9 1.08-2.69 4.33-4.73 2.14-1.35 4.12-2.46 4.39-2.48 0.27-0.01 2.18 2.19 4.24 4.9 2.06 2.7 3.89 5.36 4.07 5.9 0.18 0.54-0.69 2.14-1.95 3.58-1.44 1.65-2.28 3.27-2.27 4.4 0 1.07 0.73 2.53 1.79 3.61 0.98 0.99 2.44 1.8 3.25 1.79 0.95-0.01 1.98-0.81 2.93-2.29 0.81-1.25 1.91-2.28 2.45-2.29 0.54-0.02 2.89 2.49 5.22 5.56 2.33 3.07 4.38 5.56 4.56 5.54 0.18-0.02 1.06-0.6 1.96-1.28l1.63-1.24c-9.19-11.96-12.17-16.02-12.56-16.73-0.52-0.97-0.45-2.42 0.27-5.55 0.53-2.33 1.13-5.85 1.33-7.82 0.35-3.46 0.29-3.66-1.84-5.45-1.69-1.43-2.62-1.77-3.99-1.47-0.99 0.22-2.53 0.25-3.43 0.07-0.92-0.19-1.51-0.68-1.36-1.14 0.15-0.45 0.45-1.62 0.66-2.61 0.24-1.17 1.23-2.29 2.82-3.22 1.35-0.78 3.47-2.2 4.73-3.16 1.26-0.95 3.34-3.32 4.64-5.26 1.29-1.94 2.81-4.99 3.36-6.79 0.56-1.79 1.18-4.43 1.38-5.87 0.2-1.43-0.08-4.66-0.62-7.17-0.54-2.51-1.7-5.89-2.59-7.5-0.89-1.61-3.01-4.35-4.71-6.09-1.71-1.74-4.99-4.08-7.32-5.22-3.93-1.91-4.71-2.06-11.1-2.06-6.39 0-7.17 0.14-11.1 2.07-2.32 1.13-5.69 3.5-7.48 5.26-1.8 1.75-4 4.7-4.9 6.55-0.89 1.84-2.07 3.37-2.6 3.38-0.54 0.02-1.31-0.49-1.7-1.12-0.4-0.62-4.72-6.35-9.62-12.72-4.9-6.36-8.9-12.09-8.9-12.71 0-0.63 0.88-1.73 1.95-2.45 1.07-0.72 2.03-1.64 2.13-2.05 0.11-0.41-0.52-1.36-1.39-2.11l-1.59-1.36-4.39 3.56c-3.27-3.27-4.4-4.22-4.62-4.22-0.23-0.01-1.11 0.53-1.96 1.19zm-11.74 28.99c-3.94 1.06-8.64 2.59-10.43 3.4-1.8 0.81-5 2.63-7.12 4.04-2.11 1.42-5.05 3.98-6.52 5.7-1.47 1.72-2.52 3.23-2.34 3.37 0.18 0.13 2.45-0.76 5.05-1.99 2.6-1.22 6.27-2.54 8.15-2.92 1.89-0.38 5.19-1.39 7.34-2.24 2.15-0.85 5.97-2.13 8.48-2.84 2.51-0.71 6.11-1.69 8-2.16 1.89-0.48 3.43-1.09 3.42-1.36 0-0.26-0.74-1.66-1.64-3.09-0.89-1.44-1.85-2.58-2.12-2.54-0.27 0.04-1.07 0.22-1.79 0.39-0.72 0.18-4.53 1.18-8.48 2.24zm2.94 13.55c-2.69 0.78-5.92 1.71-7.18 2.05-1.27 0.34-4.51 2.56-7.32 5.02-2.78 2.42-5.93 5.64-7.01 7.17-1.09 1.52-1.68 2.77-1.32 2.77 0.36 0 2.63-1.06 5.05-2.36 2.43-1.29 5.87-2.89 7.67-3.54 1.79-0.66 5.02-1.52 7.17-1.91 2.15-0.39 7.14-1.14 11.09-1.66 3.95-0.53 8.57-1.32 10.28-1.77 1.71-0.46 3.1-1.12 3.09-1.48-0.01-0.36-0.89-2.19-1.96-4.07-1.75-3.08-2.17-3.42-4.07-3.36-1.17 0.04-4.03 0.44-6.36 0.89-2.33 0.45-6.44 1.46-9.13 2.25zm66.19-25.33c2.92-0.04 5.75 0.37 7.83 1.14 1.79 0.65 4.44 1.93 5.87 2.83 1.44 0.91 3.61 2.79 4.84 4.19 1.23 1.4 2.99 4.16 3.9 6.14 1.43 3.07 1.67 4.5 1.68 10.1 0.02 6.24-0.08 6.71-2.27 10.69-1.25 2.29-3.67 5.44-5.38 7.01-1.7 1.57-3.54 2.85-4.07 2.85-0.54 0-1.13-0.66-1.31-1.47-0.18-0.81-0.76-3.52-1.28-6.03-0.9-4.33-0.88-4.66 0.33-6.36 0.7-0.99 1.5-3.25 1.77-5.04 0.42-2.82 0.7-3.26 2.12-3.42 1.19-0.13 1.68-0.62 1.82-1.81 0.1-0.9-0.23-2.07-0.73-2.61-0.5-0.54-1.66-2.3-2.57-3.91-1.08-1.92-2.53-3.37-4.17-4.17-1.85-0.91-3.36-1.14-5.77-0.89-1.79 0.18-4.72 1.01-6.52 1.83-1.79 0.81-4.58 1.99-6.19 2.62-2.53 0.97-2.94 1.38-2.94 2.99 0 1.55 0.3 1.88 1.79 2.02 0.99 0.09 1.93 0.53 2.09 0.98 0.16 0.44-0.46 1.84-1.36 3.09-0.91 1.26-1.93 3.02-2.26 3.92-0.47 1.25-0.34 1.89 0.55 2.79 0.63 0.64 1.95 1.15 2.94 1.14 0.99-0.01 1.79 0.27 1.79 0.63 0 0.36-0.58 1.53-1.3 2.61-0.72 1.08-1.6 1.96-1.96 1.96-0.36 0-3.29-3.52-6.52-7.83-3.23-4.3-6.02-8.19-6.22-8.64-0.19-0.45 0.4-2.5 1.31-4.57 0.91-2.06 2.75-4.96 4.1-6.44 1.34-1.48 3.62-3.5 5.05-4.47 1.44-0.98 3.93-2.23 5.54-2.8 1.62-0.56 4.99-1.04 7.5-1.07zm-22.77 29.62l1.5 1.31c0.82 0.71 2.35 2.55 3.4 4.07 1.04 1.53 1.75 3.21 1.57 3.75-0.18 0.54-0.77 0.98-1.3 0.98-0.54 0-1.72-1.1-2.61-2.45-0.9-1.34-1.84-3.61-2.1-5.05zm34.06 31.75c0.6 0.11 1.19 0.8 1.3 1.51 0.12 0.72-0.1 1.6-0.48 1.96q-0.69 0.66-1.83-0.46-1.13-1.11-0.61-2.17c0.29-0.58 1.02-0.96 1.62-0.84z"></path><path id="AAV" fill-rule="evenodd" class="s2" d="m446.37 564l-3.87-13h-27.71l-3.81 13h-24.87l29.59-78.74h26.54l29.23 77.78 29.23-77.78h26.54l29.59 78.74h-25.46l-3.87-13h-27.71l-3.81 13zm-26.32-30.02h17.35l-8.71-28.31zm85 0h17.35l-8.7-28.31zm75.97 30.03l-29.75-78.74h25.46l17.72 56.66 17.46-56.66h24.7l-29.21 78.74z"></path></svg>